<?xml version="1.0" standalone="no"?>
<!DOCTYPE svg PUBLIC "-//W3C//DTD SVG 1.1//EN" "http://www.w3.org/Graphics/SVG/1.1/DTD/svg11.dtd" >
<svg xmlns="http://www.w3.org/2000/svg">
<metadata>
Created by FontForge 20120731 at Wed Sep 14 12:41:21 2016
 By admin
</metadata>
<defs>
<font id="iconfont" horiz-adv-x="1024" >
  <font-face 
    font-family="iconfont"
    font-weight="500"
    font-stretch="normal"
    units-per-em="1024"
    panose-1="2 0 6 3 0 0 0 0 0 0"
    ascent="896"
    descent="-128"
    x-height="792"
    bbox="-1.53719 -128.261 1707 896.75"
    underline-thickness="50"
    underline-position="-100"
    unicode-range="U+0078-E6C3"
  />
<missing-glyph horiz-adv-x="374" 
d="M34 0v682h272v-682h-272zM68 34h204v614h-204v-614z" />
    <glyph glyph-name=".notdef" horiz-adv-x="374" 
d="M34 0v682h272v-682h-272zM68 34h204v614h-204v-614z" />
    <glyph glyph-name=".null" horiz-adv-x="0" 
 />
    <glyph glyph-name="nonmarkingreturn" horiz-adv-x="341" 
 />
    <glyph glyph-name="x" unicode="x" horiz-adv-x="1001" 
d="M281 543q-27 -1 -53 -1h-83q-18 0 -36.5 -6t-32.5 -18.5t-23 -32t-9 -45.5v-76h912v41q0 16 -0.5 30t-0.5 18q0 13 -5 29t-17 29.5t-31.5 22.5t-49.5 9h-133v-97h-438v97zM955 310v-52q0 -23 0.5 -52t0.5 -58t-10.5 -47.5t-26 -30t-33 -16t-31.5 -4.5q-14 -1 -29.5 -0.5
t-29.5 0.5h-32l-45 128h-439l-44 -128h-29h-34q-20 0 -45 1q-25 0 -41 9.5t-25.5 23t-13.5 29.5t-4 30v167h911zM163 247q-12 0 -21 -8.5t-9 -21.5t9 -21.5t21 -8.5q13 0 22 8.5t9 21.5t-9 21.5t-22 8.5zM316 123q-8 -26 -14 -48q-5 -19 -10.5 -37t-7.5 -25t-3 -15t1 -14.5
t9.5 -10.5t21.5 -4h37h67h81h80h64h36q23 0 34 12t2 38q-5 13 -9.5 30.5t-9.5 34.5q-5 19 -11 39h-368zM336 498v228q0 11 2.5 23t10 21.5t20.5 15.5t34 6h188q31 0 51.5 -14.5t20.5 -52.5v-227h-327z" />
    <glyph glyph-name="uniE600" unicode="&#xe600;" 
d="M512 -128q-104 0 -199 40.5t-163.5 109t-109 163.5t-40.5 199t40.5 199t109 163.5t163.5 109t199 40.5t199 -40.5t163.5 -109t109 -163.5t40.5 -199t-40.5 -199t-109 -163.5t-163.5 -109t-199 -40.5v0zM512 833q-91 0 -174 -35.5t-143.5 -96t-96 -143.5t-35.5 -174
t35.5 -174.5t96 -143.5t143.5 -95.5t174 -35.5t174.5 35.5t143.5 95.5t95.5 143.5t35.5 174.5t-35.5 174t-95.5 143.5t-143.5 96t-174.5 35.5v0zM567 316q-20 -29 -55 -29q-27 0 -46.5 19t-19.5 47q0 39 35 57l-1 317h62l2 -317q19 -11 28 -31l218 1v-63l-223 -1v0zM567 316
z" />
    <glyph glyph-name="uniE601" unicode="&#xe601;" horiz-adv-x="1025" 
d="M910 583h-57v85h-28q-35 0 -60 25t-25 60.5t25 60.5t60 25q12 0 20 8.5t8 20t-8 20t-20 8.5h-683q-59 0 -100.5 -41.5t-41.5 -100.5v-768q0 -47 33.5 -80.5t80.5 -33.5h739v85h57q48 0 81 33.5t33 80.5v398q0 47 -33.5 80.5t-80.5 33.5zM142 839h570q-29 -38 -29 -85
t29 -85h-570q-35 0 -60 24.5t-25 60t25 60.5t60 25zM796 -71h-682q-24 0 -40.5 16.5t-16.5 40.5v655q38 -30 85 -30h654v-682zM967 71q0 -23 -16.5 -40t-40.5 -17h-57v114h114v-57zM967 185h-114v142h114v-142zM967 384h-114v142h57q24 0 40.5 -16.5t16.5 -40.5v-85z
M228 100q0 -48 33 -81t80 -33h171q47 0 80.5 33t33.5 81q0 31 -16 57.5t-43 41.5q30 58 30 128q0 95 -50 161.5t-120.5 66.5t-120.5 -67t-50 -161q0 -71 30 -129q-27 -15 -42.5 -41t-15.5 -57zM427 498q47 0 80.5 -50t33.5 -121t-33.5 -121t-80.5 -50t-80.5 50t-33.5 121
t33.5 121t80.5 50zM318 151q47 -52 108.5 -52t108.5 52q15 -6 24.5 -20t9.5 -32q0 -23 -16.5 -39.5t-40.5 -16.5h-171q-23 0 -40 16.5t-17 39.5q0 18 9.5 32t24.5 20zM318 151z" />
    <glyph glyph-name="uniE602" unicode="&#xe602;" 
d="M944 801h-50v15q0 33 -23.5 56.5t-56.5 23.5h-1q-33 0 -56.5 -23.5t-23.5 -56.5v-15h-442v15q0 33 -23.5 56.5t-56.5 23.5h-1q-33 0 -56.5 -23.5t-23.5 -56.5v-15h-50q-33 0 -56.5 -23.5t-23.5 -56.5v-769q0 -33 23.5 -56.5t56.5 -23.5h864q33 0 56.5 23.5t23.5 56.5v769
q0 33 -23.5 56.5t-56.5 23.5zM765 816q0 20 14 34t34 14h1q20 0 34 -14t14 -34v-143q0 -20 -14 -34.5t-34 -14.5h-1q-20 0 -34 14.5t-14 34.5v143zM161 816q0 20 14.5 34t33.5 14h2q20 0 34 -14t14 -34v-143q0 -20 -14 -34.5t-34 -14.5h-2q-19 0 -33.5 14.5t-14.5 34.5v143z
M960 -48q0 -6 -4.5 -11t-11.5 -5h-864q-6 0 -11 5t-5 11v565h896v-565zM329 329h-147v73h147v-73zM586 329h-147v73h147v-73zM840 329h-144v73h144v-73zM329 183h-147v72h147v-72zM586 183h-147v72h147v-72zM840 183h-144v72h144v-72zM329 35h-147v75h147v-75zM586 35h-147
v75h147v-75zM840 35h-144v75h144v-75z" />
    <glyph glyph-name="uniE603" unicode="&#xe603;" 
d="M456 859q12 0 21 -9t9 -21.5t-9 -21.5t-21 -9h-302q-37 0 -64 -26t-27 -63v-687q0 -37 27 -63.5t64 -26.5h565q37 0 63.5 26.5t26.5 63.5v143q0 12 9 21t21.5 9t21.5 -9t9 -21v-143q0 -62 -44.5 -106t-106.5 -44h-565q-62 0 -106.5 44t-44.5 106v687q0 62 44.5 106
t106.5 44h287h15zM441 859zM658 154q13 0 21.5 -9t8.5 -21.5t-8.5 -21t-21.5 -8.5h-443q-13 0 -22 8.5t-9 21t9 21.5t22 9h443zM658 154zM416 315q13 0 21.5 -9t8.5 -21.5t-8.5 -21t-21.5 -8.5h-201q-13 0 -22 8.5t-9 21t9 21.5t22 9h201zM416 315zM325 476q13 0 22 -9
t9 -21.5t-9 -21t-22 -8.5h-110q-13 0 -22 8.5t-9 21t9 21.5t22 9h110zM325 476zM325 637q13 0 22 -8.5t9 -21t-9 -21.5t-22 -9h-110q-13 0 -22 9t-9 21.5t9 21t22 8.5h110zM325 637zM729 312q-121 0 -206.5 85.5t-86 206.5t85.5 206.5t207 85.5t206.5 -85.5t85.5 -206.5
t-85.5 -206.5t-206.5 -85.5zM729 836q-96 0 -164 -68t-68 -164t68 -164t164 -68t164 68t68 164t-68 164t-164 68zM729 836zM870 574h-283q-12 0 -21 9t-9 21.5t9 21t21 8.5h283q12 0 21 -8.5t9 -21t-9 -21.5t-21 -9zM870 574z" />
    <glyph glyph-name="uniE604" unicode="&#xe604;" 
d="M972 413q18 19 18 77q0 13 -6 32.5t-12 31.5l-6 12q24 35 24 71q0 21 -6 38t-15.5 27t-18.5 17.5t-15 9.5l-6 3q8 18 8 45q0 47 -30.5 80t-82.5 39h-153h-160q-31 0 -61 -7t-51 -17t-38 -21t-25 -19t-8 -11v-437q4 -46 45 -102q1 -2 7 -8t12.5 -13.5t9.5 -10.5
q20 -24 36 -46q66 -97 69 -212q1 -56 36.5 -89.5t91.5 -30.5q43 3 71.5 31.5t40.5 77.5q12 43 3.5 112.5t-35.5 138.5l148 1q52 -1 89.5 30t37.5 80q0 12 -4.5 29.5t-8.5 28.5zM972 413zM34 306v588h220v-588h-220zM34 306z" />
    <glyph glyph-name="uniE605" unicode="&#xe605;" 
d="M850 -64q0 -31 -10.5 -47t-35.5 -16q-26 0 -35 16t-9 47l-2 361q-1 0 -11 2t-27.5 9.5t-35.5 19.5t-35.5 34.5t-27.5 50.5q1 10 3 27.5t9.5 68t16.5 96t25.5 101t36 95.5t47.5 67.5t60 27.5q18 0 25 -26.5t6 -52.5l-2 -27zM385 423h-18l26 -488q0 -28 -21 -45.5
t-50 -17.5q-28 0 -48.5 17.5t-20.5 45.5l28 487l-20 1q-11 0 -49 68.5t-38 86.5l34 316q1 -2 47 -2v-208q0 -16 0.5 -23t6 -13.5t16.5 -6.5t16.5 6.5t6.5 13.5t1 23v208h65v-211q0 -21 5 -30t22 -9q16 0 19.5 8.5t3.5 30.5v211h40l33 -315q0 -17 -46.5 -85.5t-58.5 -68.5z
M385 423z" />
    <glyph glyph-name="uniE606" unicode="&#xe606;" horiz-adv-x="1025" 
d="M512 384q-18 0 -30 -13q-13 -12 -13 -30q0 -17 12.5 -29.5t30.5 -12.5t30 12q13 12 13 30t-12.5 30.5t-30.5 12.5v0zM782 -42q93 65 146.5 166t53.5 217q0 98 -38 185.5t-106 152.5l40 41l74 -74q6 -6 15 -6t15 6q43 43 43 103.5t-43 103.5t-104 43q-60 0 -103 -43
q-7 -6 -7 -15t7 -15l73 -73l-43 -43q-128 104 -293 104t-294 -104l-42 43l73 73q7 6 7 15t-7 15q-43 43 -103.5 43t-103.5 -43t-43 -103.5t43 -103.5q6 -6 15 -6t15 6l74 74l40 -41q-68 -65 -106 -152.5t-38 -185.5q0 -116 53.5 -217t146.5 -166l-63 -48q-8 -5 -9 -13.5
t4 -16.5q7 -8 17 -8q8 0 13 4l76 57q108 -61 232 -61t232 61l76 -57q5 -4 13 -4q10 0 17 9q5 7 4 15.5t-8 13.5l-64 48v0zM330 637q72 46 182 46q9 0 15 -6.5t6 -15.5v-85q0 -9 -6 -15t-15 -6t-15 6t-6 15v63q-83 -3 -138 -38q-5 -4 -12 -4q-11 0 -18 10q-5 7 -3 16t10 14v0
zM634 220q-6 -7 -15 -7t-15 7l-49 48q-20 -12 -43 -12q-35 0 -60 25t-25 60q0 24 12 43l-177 177q-7 6 -7 15t6.5 15t15.5 6t15 -6l177 -176q19 12 43 12q35 0 60 -25t25 -61q0 -23 -12 -43l49 -48q6 -6 6 -15t-6 -15v0zM634 220z" />
    <glyph glyph-name="uniE607" unicode="&#xe607;" 
d="M798 237q-75 0 -128.5 -53.5t-53.5 -129t53.5 -129t128.5 -53.5t128.5 53.5t53.5 129t-53.5 129t-128.5 53.5zM877 21h-74h-20h-17v122h37v-81h74v-41zM877 21zM185 -11q-27 0 -47 19.5t-20 47.5v699q0 27 20 47t47 20h570q27 0 47 -20t20 -47v-464q39 -5 74 -23v494
q0 55 -39.5 94.5t-94.5 39.5h-584q-55 0 -94.5 -39.5t-39.5 -94.5v-714q0 -55 39.5 -94t94.5 -39h433q-27 33 -40 74h-386v0zM626 730l-158 -275q-7 16 -28.5 52.5t-58.5 99.5t-70 123h-75l172 -291h-146v-59h170v-94h-169v-55h169v-139h68v139h163v55h-164v94h164v59h-135
l170 291h-72v0z" />
    <glyph glyph-name="uniE608" unicode="&#xe608;" 
d="M921 790l-336 -780l-120 342l-344 103zM1005 892q-9 0 -22 -6l-956 -402q-25 -11 -26.5 -29t22.5 -33l395 -123l130 -400q13 -23 31 -23q19 0 31 27l409 947q8 20 4 31t-18 11v0zM1005 892z" />
    <glyph glyph-name="uniE609" unicode="&#xe609;" 
d="M489 226q-9 9 -9.5 22t9.5 22l272 273q9 9 22 9t23 -10q9 -9 9 -22t-9 -22l-272 -273q-9 -9 -22.5 -9t-22.5 10v0zM218 542q10 10 23 10t22 -9l272 -272q9 -10 9 -23t-9 -22q-9 -10 -22.5 -10t-22.5 9l-272 273q-9 9 -9 22t9 22v0zM512 -128q139 0 257 68.5t186.5 186.5
t68.5 257t-68.5 257t-186.5 186.5t-257 68.5t-257 -68.5t-186.5 -186.5t-68.5 -257t68.5 -257t186.5 -186.5t257 -68.5zM512 848q94 0 180 -36.5t148.5 -99t99 -148.5t36.5 -180t-36.5 -180t-99 -148.5t-148.5 -99t-180 -36.5t-180 36.5t-148.5 99t-99 148.5t-36.5 180
t36.5 180t99 148.5t148.5 99t180 36.5z" />
    <glyph glyph-name="uniE60A" unicode="&#xe60a;" 
d="M76 678l436 -432l436 432l76 -74l-512 -514l-512 514z" />
    <glyph glyph-name="uniE60B" unicode="&#xe60b;" horiz-adv-x="1025" 
d="M302 384v-204q0 -34 -19 -59q-16 -21 -42 -29.5t-52 -0.5q-26 7 -43.5 28.5t-19.5 47.5q-1 7 -1 16v405q0 54 45 81q42 25 85.5 1.5t46.5 -72.5v-44v-170zM302 384zM898 384v-205q0 -53 -44 -80q-40 -24 -83 -2.5t-48 67.5q-1 8 -1 15v411q0 32 18.5 56.5t49.5 31.5
q36 10 68.5 -12t38.5 -59q1 -10 1 -20v-203zM898 384zM703 446v-124h-382v124h382zM703 446zM0 384v118q0 19 10.5 32.5t28.5 18.5q21 6 40.5 -7.5t21.5 -35.5q1 -8 1 -17v-225q0 -21 -10 -34q-23 -29 -58 -18q-14 5 -23.5 18t-10.5 30v47v73zM0 384zM922 384v37v43v37
q0 34 29 49q22 11 46 -1.5t26 -38.5q1 -9 1 -16v-226q0 -33 -25 -47q-26 -16 -51.5 -1t-25.5 46v1v117zM922 384z" />
    <glyph glyph-name="uniE60C" unicode="&#xe60c;" 
d="M984 583q-39 92 -110 163t-163 110q-95 40 -199 40t-199 -40q-92 -39 -163 -110t-110 -163q-40 -95 -40 -199t40 -199q39 -92 110 -163t163 -110q95 -40 199 -40t199 40q92 39 163 110t110 163q40 95 40 199t-40 199zM963 384q0 -91 -36 -174.5t-96.5 -144t-144 -96.5
t-174.5 -36t-174.5 36t-144 96.5t-96.5 144t-36 174.5t36 174.5t96.5 144t144 96.5t174.5 36t174.5 -36t144 -96.5t96.5 -144t36 -174.5zM741 560q10 -9 10 -22q1 -12 -7 -21l-270 -301q-10 -11 -23 -11q-12 0 -21 8v1h-1l-148 133q-10 8 -10 21q-1 13 8 22q9 11 22 11
q12 0 21 -8l126 -113l250 277q9 11 23 11q11 0 20 -8z" />
    <glyph glyph-name="uniE60D" unicode="&#xe60d;" 
d="M1024 541q-1 -16 -2 -25q-5 -62 -34 -122q-44 -90 -114 -171q-64 -75 -157 -160q-76 -70 -164 -140q-23 -18 -47 -16q-18 2 -33 14q-167 133 -284 258q-83 88 -133 175q-38 67 -48 121q-1 6 -7 52q-1 3 -1 5v29q0 1 0.5 3t0.5 3q0 3 1 11.5t2 13.5q13 94 69 162
q78 96 194 106q61 5 119 -18q64 -26 111 -80q3 -3 8 -9t7 -9q2 2 4 5q39 50 92 79q82 44 171 29q103 -17 171 -102q63 -77 72 -180q0 -1 2 -25v-9zM960 545q0 4 -0.5 9.5t-1 10.5t-0.5 9q-9 84 -62 143q-75 83 -183 72q-72 -7 -128 -62q-33 -33 -55 -84q-6 -13 -18.5 -13
t-17.5 13q-19 43 -44 72q-65 72 -156 75q-87 3 -150 -57q-101 -97 -74 -241q7 -41 40 -99q46 -83 129 -171q110 -115 268 -242q5 -3 9 0q84 67 155 132q93 85 155 157q70 81 109 166q24 52 25 110zM960 545z" />
    <glyph glyph-name="uniE60E" unicode="&#xe60e;" 
d="M539 410l-9 4l8 6q42 33 65.5 81t23.5 101q0 96 -68.5 164.5t-165 68.5t-165 -68.5t-68.5 -164.5q0 -54 23.5 -101.5t65.5 -81.5l8 -6l-9 -3q-113 -45 -180.5 -144t-67.5 -219v-79q0 -15 10 -25t24 -10h719q14 0 24 10t10 25v79q0 120 -67.5 219t-180.5 144zM218 602
q0 72 51.5 123.5t124 51.5t124 -51.5t51.5 -123.5t-51.5 -123.5t-124 -51.5t-124 51.5t-51.5 123.5zM733 -6h-678v47q0 91 45 168.5t123.5 123t170.5 45.5t170 -45.5t123.5 -123t45.5 -168.5v-47zM1024 441.5q0 -14.5 -10.5 -22t-26.5 -7.5h-97v-98q0 -16 -7.5 -26t-22 -10
t-22 10t-7.5 26v98h-97q-16 0 -26 7.5t-10 21.5t10 21.5t26 7.5h97v99q0 16 7.5 25.5t22 9.5t22 -10.5t7.5 -26.5v-97h99q16 0 25.5 -7t9.5 -21.5z" />
    <glyph glyph-name="uniE60F" unicode="&#xe60f;" 
d="M512 -128q-12 0 -20 8q-11 10 -28 26t-58 58.5t-79.5 85.5t-83 101t-77 110.5t-54 110t-21.5 104.5q0 114 56.5 210.5t153.5 153t211 56.5t211 -56.5t153.5 -153t56.5 -210.5q0 -47 -21.5 -104.5t-54 -110t-77 -110.5t-82.5 -101t-79.5 -85t-58.5 -58.5t-28 -26.5
q-8 -8 -20 -8zM512 836q-98 0 -181 -48.5t-131.5 -131.5t-48.5 -181q0 -54 38.5 -130.5t99.5 -153.5t116 -137.5t107 -110.5q52 50 107 110.5t116 137t99.5 153.5t38.5 131q0 98 -48.5 181t-131.5 131.5t-181 48.5zM512 836zM512 325q-73 0 -124.5 51.5t-51.5 124
t51.5 124.5t124.5 52t124.5 -52t51.5 -124.5t-51.5 -124t-124.5 -51.5zM512 616q-48 0 -82 -34t-34 -81.5t34 -81.5t82 -34t82 34t34 81.5t-34 81.5t-82 34zM512 616z" />
    <glyph glyph-name="uniE610" unicode="&#xe610;" 
d="M866 553h-708q-53 0 -90 -37t-37 -90v-427q0 -53 37 -90t90 -37h708q53 0 90 37t37 90v427q0 53 -37 90t-90 37zM358 274q0 -7 -4.5 -11t-10.5 -4h-217q-6 0 -10.5 4t-4.5 11v44q0 6 4.5 10.5t10.5 4.5h217q6 0 10.5 -4.5t4.5 -10.5v-44zM553 222v-90q0 -16 -11 -26.5
t-26 -10.5t-26 10.5t-11 26.5v90q-19 10 -30.5 28.5t-11.5 41.5q0 32 23.5 55.5t56 23.5t55.5 -23.5t23 -55.5q0 -23 -11.5 -41.5t-30.5 -28.5zM921 274q0 -7 -4 -11t-10 -4h-217q-7 0 -11 4t-4 11v44q0 6 4.5 10.5t10.5 4.5h217q6 0 10 -4.5t4 -10.5v-44zM921 274zM217 497
v205q0 49 35.5 84.5t84.5 35.5h358q50 0 85 -35t35 -85v-205h74v205q0 80 -57 137t-137 57h-358q-80 0 -137 -57t-57 -137v-205h74zM217 497z" />
    <glyph glyph-name="uniE611" unicode="&#xe611;" 
d="M869 80h-174q-27 -27 -65 -67.5t-59 -64t-24 -27.5q-15 -15 -35 -15t-34 14q-111 115 -154 160h-169q-63 0 -109 48t-46 115v464q0 64 44.5 109.5t107.5 45.5h720q63 0 107.5 -45.5t44.5 -109.5v-464q0 -66 -46 -114.5t-109 -48.5zM960 707q0 38 -26 65t-62 27h-720
q-36 0 -62 -27t-26 -65v-464q0 -40 27 -69.5t64 -29.5h196l10 -10q37 -40 150 -156q94 104 149 157l9 9h200q37 0 64 29.5t27 69.5v464zM752 397q-25 0 -42.5 18.5t-17.5 44t17.5 43.5t42.5 18t42.5 -18t17.5 -43.5t-17.5 -44t-42.5 -18.5zM512 397q-25 0 -42.5 18.5
t-17.5 44t17.5 43.5t42.5 18t42.5 -18t17.5 -43.5t-17.5 -44t-42.5 -18.5zM272 397q-25 0 -42.5 18.5t-17.5 44t17.5 43.5t42.5 18t42.5 -18t17.5 -43.5t-17.5 -44t-42.5 -18.5zM272 397z" />
    <glyph glyph-name="uniE612" unicode="&#xe612;" 
d="M512 0q-47 0 -96 8l-224 -136v227q-89 62 -140.5 153.5t-51.5 195.5q0 91 40.5 174t109 143t163.5 95.5t199 35.5t199 -35.5t163.5 -95.5t109 -143t40.5 -174t-40.5 -174t-109 -143t-163.5 -95.5t-199 -35.5zM512 832q-122 0 -225 -51.5t-163 -140t-60 -192.5
q0 -96 51.5 -178.5t139.5 -135.5l-2 -149l151 91q54 -12 108 -12q122 0 225 51.5t163 140t60 192.5t-60 192.5t-163 140t-225 51.5zM768 384q-27 0 -45.5 19t-18.5 45.5t18.5 45t45.5 18.5t45.5 -18.5t18.5 -45t-18.5 -45.5t-45.5 -19zM512 384q-27 0 -45.5 19t-18.5 45.5
t19 45t45.5 18.5t45 -18.5t18.5 -45t-18.5 -45.5t-45.5 -19zM256 384q-27 0 -45.5 19t-18.5 45.5t19 45t45.5 18.5t45 -18.5t18.5 -45t-18.5 -45.5t-45.5 -19zM256 384z" />
    <glyph glyph-name="uniE613" unicode="&#xe613;" horiz-adv-x="1025" 
d="M954 201q23 -9 29 -10q16 -6 20.5 -11.5t4.5 -23.5v-11h-40q-19 0 -19 -14q-1 -7 4.5 -11.5t13.5 -4.5h13h14h14v-52v-26q-1 -8 6 -14q4 -3 10 -18q1 -1 0.5 -5t-0.5 -5q1 -19 -6.5 -26t-24.5 -9q-8 0 -24 -3q5 80 -50 127q-42 36 -98 34q-41 -1 -76 -25q-34 -23 -51 -62
q-16 -39 -9 -80h-344q10 86 -54 138q-45 35 -105 28q-56 -6 -95.5 -55t-27.5 -118q-31 5 -43 8q-3 0 -8 5q-8 8 -7 28t9 28q5 5 6 12q2 18 3 46q0 11 11 12q4 0 31 5q7 2 11.5 7t2.5 11q-3 15 -20 12q-5 -1 -15.5 -2.5t-16.5 -2.5q-4 14 11 24q44 28 98 43q17 5 37 9.5
t43.5 10t37.5 8.5q7 2 12 6q67 55 144 93q54 27 143 33q76 5 159 -8q35 -5 68 -26q59 -35 96 -62q28 -19 55 -11q1 0 28 4q20 3 23 -12q3 -17 -17 -21q-5 0 -7 -1v-2zM617 290q-165 18 -308 -103q29 -6 58 -9.5t64.5 -3.5t56 0.5t64 3.5t57.5 4q1 14 8 108zM651 287
q-1 -12 -2.5 -32.5t-3 -37.5t-2.5 -32q79 6 138 11q-54 77 -130 91zM594 115l19 -1q1 0 2 1q7 1 11 6t4 10q-1 14 -17 14q-25 1 -37 0q-17 0 -17 -15q0 -6 4.5 -10.5t11.5 -4.5h19zM594 115zM246 895h186q22 0 40.5 -17.5t18.5 -40.5q1 -12 1 -53v-54v-72v-72q1 -99 0 -119
q-1 -27 -21 -44.5t-44 -16.5h-68h-54h-34h-35h-22h-23h-117q-32 0 -47 13q-26 21 -26 54q-1 224 0 356q1 52 49 65q5 1 12 1h184zM69 845q-7 0 -11.5 -4.5t-4.5 -11.5v-353v89v89v-89v-89v0q1 -20 22 -20q60 1 89 1h37h43h37h23h23q89 -1 95 -1q19 1 18 20v98v45v53v45v54
v54q0 11 -4 15.5t-15 5.5h-6zM826 -128q-44 0 -74 30.5t-30 74.5q0 43 30 73.5t73 30.5t73.5 -29.5t32.5 -70.5q1 -46 -31 -78t-74 -31zM865 -24q1 15 -11 27.5t-27.5 12.5t-28 -12t-12.5 -28q0 -15 12 -27t27 -12.5t27.5 11.5t12.5 28zM865 -24zM95 -23q0 42 29.5 72.5
t70.5 31.5q45 1 77 -30t32 -73q0 -45 -30 -75.5t-73 -30.5q-45 0 -75.5 30t-30.5 75zM199 16q-16 -1 -27.5 -12.5t-11.5 -27.5q0 -15 12 -27t28 -12t27.5 12t11.5 28q0 15 -12.5 27t-27.5 12zM199 16zM135 503v291q8 1 9 1h117q70 -2 94 -55q12 -32 9.5 -62.5t-26.5 -54.5
t-63 -30q-3 0 -64 -2q-1 -1 -3 -1t-4.5 0.5t-4.5 0.5v-88h-64zM200 647q33 0 50 1q4 0 11 1q17 3 27 14t11 27q0 19 -9 31t-26 15q-4 0 -64 3v-92zM200 647z" />
    <glyph glyph-name="uniE614" unicode="&#xe614;" horiz-adv-x="1025" 
d="M1017 119l-4 6l-11 13q-12 15 -44 41q-47 39 -86 64l-51 33l-23 12q-18 9 -39 1q-16 -5 -25 -19l-16 -24q-5 -8 -10 -17q-4 -7 -13.5 -26t-15.5 -30q-9 -15 -23.5 -26t-34 -14.5t-39.5 7.5q-109 62 -184 133q-108 103 -145 186q-9 13 -2 39.5t29 36.5q14 7 37 16t34 16
q8 5 16 9.5t20 12.5l4 3t4 4l3 3q21 19 10 46l-2 8q-16 35 -39 75q-18 30 -45 66q-17 23 -35 39.5t-27 21.5l-10 5q-9 5 -14 7q-25 11 -53 -1q-17 -6 -34 -16.5t-23.5 -15.5t-28.5 -23q-48 -40 -75 -89t-21 -93q11 -77 95 -213.5t196 -243t256 -186t225 -89.5q47 -6 91 14.5
t91 63.5q41 39 60 78q7 15 8.5 32t-6.5 34zM1017 119z" />
    <glyph glyph-name="uniE615" unicode="&#xe615;" 
d="M512 896q-139 0 -257 -68.5t-186.5 -186.5t-68.5 -257t68.5 -257t186.5 -186.5t257 -68.5t257 68.5t186.5 186.5t68.5 257t-68.5 257t-186.5 186.5t-257 68.5zM512 -32q-113 0 -209 55.5t-151.5 151.5t-55.5 209t55.5 209t151.5 151.5t209 55.5t209 -55.5t151.5 -151.5
t55.5 -209t-55.5 -209t-151.5 -151.5t-209 -55.5zM575 147q0 -7 -5 -12t-12 -5h-61q-7 0 -12 5t-5 12v30q0 7 5 12t12 5h61q7 0 12 -5t5 -12v-30zM575 416l1 -125q0 -7 -5 -12q-6 -6 -13 -6l-60 1q-8 0 -13 5t-5 12v123v194q0 7 5 13q5 5 12 5h61q7 0 13 -5q5 -5 5 -13z
M575 416z" />
    <glyph glyph-name="uniE616" unicode="&#xe616;" horiz-adv-x="1025" 
d="M782 -6q9 -13 4.5 -29t-18.5 -24t-29.5 -4t-23.5 18q-9 14 -4.5 29.5t18.5 24.5q14 8 29.5 3.5t23.5 -18.5v0zM551 -89q0 -16 -11.5 -27.5t-27.5 -11.5t-27.5 11.5t-11.5 27.5v28q0 16 11.5 27.5t27.5 11.5t27.5 -11.5t11.5 -27.5v-28v0zM310 -45q-9 -14 -24.5 -18
t-29.5 4t-18.5 23.5t4.5 30.5l29 50q8 15 24 19t30 -4t18 -24t-4 -30l-29 -51v0zM123 114q-15 -9 -30.5 -4.5t-23.5 18.5t-4 29.5t18 24.5l78 45q14 8 30 4t24 -18t3.5 -30t-18.5 -24l-77 -45v0zM39 345q-16 0 -27.5 11.5t-11.5 27.5t11.5 27.5t27.5 11.5h122
q16 0 27.5 -11.5t11.5 -27.5t-11.5 -27.5t-27.5 -11.5h-122v0zM83 586q-14 8 -18.5 24t4.5 30q8 14 23.5 18.5t30.5 -4.5l132 -76q14 -8 18.5 -24t-3.5 -30q-9 -14 -24.5 -18t-29.5 4l-133 76v0zM242 774l92 -160q8 -14 24 -18.5t30 3.5t18 24t-4 30l-93 160q-8 14 -23.5 18
t-29.5 -4t-18 -23.5t4 -29.5v0zM473 857q0 16 11.5 27.5t27.5 11.5t27.5 -11.5t11.5 -27.5v-185q0 -16 -11.5 -27.5t-27.5 -11.5t-27.5 11.5t-11.5 27.5v185v0zM714 813q9 14 24.5 18t29.5 -4t18.5 -23.5t-3.5 -29.5l-93 -160q-8 -14 -24 -18.5t-30 3.5t-18 24t4 30l92 160
v0zM902 654l-160 -92q-14 -8 -18.5 -24t3.5 -30q9 -14 24.5 -18t29.5 4l160 92q14 8 18.5 24t-3.5 30t-24 18.5t-30 -4.5v0zM985 423q16 0 27.5 -11.5t11.5 -27.5t-11.5 -27.5t-27.5 -11.5h-185q-16 0 -27.5 11.5t-11.5 27.5t11.5 27.5t27.5 11.5h185v0zM985 423z" />
    <glyph glyph-name="uniE617" unicode="&#xe617;" 
d="M512 896q-139 0 -257 -68.5t-186.5 -186.5t-68.5 -257t68.5 -257t186.5 -186.5t257 -68.5t257 68.5t186.5 186.5t68.5 257t-68.5 257t-186.5 186.5t-257 68.5zM509 28q-23 0 -39.5 16.5t-16.5 39.5t16.5 39.5t39.5 16.5t39 -16.5t16 -39.5t-16 -39.5t-39 -16.5zM709 478
q-15 -32 -64 -79t-65 -68q-16 -20 -25 -47q-8 -29 -7 -75h-86q0 55 9 87.5t26.5 57t63.5 71.5t59 68.5t13 64t-30.5 75t-87.5 32.5q-130 0 -130 -154h-86q2 70 17 107q14 36 46 65q33 29 72 43q40 13 84 13q88 0 147 -52t59 -139q1 -38 -15 -70z" />
    <glyph glyph-name="uniE618" unicode="&#xe618;" horiz-adv-x="1025" 
d="M1019 873q-14 22 -38 22h-938q-24 0 -38 -22q-12 -23 4 -46l375 -541v-370q0 -10 6 -21t16 -17q1 0 8.5 -2.5t12.5 -2.5q13 0 17 5l171 85q25 13 25 38v285l375 545q16 24 4 42z" />
    <glyph glyph-name="uniE619" unicode="&#xe619;" 
d="M0 618q0 7 3 19.5t3 19.5q15 38 47 60.5t75 22.5h256q14 0 23 -9t9 -23q0 -15 -9 -23.5t-23 -8.5h-250h-25q-19 -5 -32 -21.5t-13 -36.5v-127v-491q0 -45 38 -64h26h742q30 0 50 19t20 51v351q0 14 9 23t23 9t23 -9t9 -23v-351q0 -47 -30 -82.5t-79 -45.5h-25
q-250 -6 -742 -6q-53 0 -88 31t-40 84v6v625v0zM704 452q-143 0 -237 -76q-53 -43 -83.5 -93t-44.5 -118q-24 48 -32 107t7 131t57 132q61 85 143 126.5t190 46.5v12v147q0 13 12 26q17 8 32 -7q23 -22 67.5 -70t67.5 -70q51 -51 128 -140q13 -13 13 -26q0 -19 -7 -25
q-52 -56 -147 -157.5t-115 -123.5q-10 -10 -22 -10t-17 10q-13 6 -13 19v147v12h1zM358 350q3 3 6.5 5t5 3.5t1.5 4.5q73 73 153 109q5 2 19.5 8t22.5 9t20.5 7t24 6t22.5 2h122h6v-141q32 35 99 108.5t99 108.5q-35 35 -102 108.5t-102 108.5v-6v-122q0 -4 -1 -5t-6 -1h-51
q-109 0 -186 -51q-116 -87 -153 -217v-45v0zM358 350z" />
    <glyph glyph-name="uniE61A" unicode="&#xe61a;" 
d="M629 333q-11 -10 -1 -20l43 -43q9 -9 19 0q40 36 62.5 86t22.5 106q0 107 -77 184t-186 77t-186 -76.5t-77 -184.5q0 -55 22.5 -105t62.5 -86q9 -9 18 0l43 43q10 10 0 19q-59 52 -59 129q0 72 52 123t124 51t124 -51t52 -123q0 -78 -59 -129zM629 333zM210 147
q10 -8 19 1l43 43q10 10 0 19q-53 49 -82 114t-29 138q0 94 47 174t128 126.5t176 46.5t176 -46.5t128 -126.5t47 -174q0 -74 -29.5 -139.5t-81.5 -113.5q-10 -10 0 -19l42 -43q10 -9 19 0q65 60 101.5 141.5t36.5 173.5q0 88 -35 168.5t-94 138.5t-140 92.5t-170 34.5
t-170 -34.5t-140 -92.5t-94 -138.5t-35 -168.5q0 -92 36 -173t101 -142zM210 147zM600 462q0 36 -26 61.5t-62 25.5t-62 -25.5t-26 -61.5t26 -61.5t62 -25.5t62 25.5t26 61.5zM600 462zM569 297q0 6 -4 9.5t-9 3.5h-87q-5 0 -9 -3.5t-4 -9.5v-412q0 -5 4 -9t9 -4h87q5 0 9 4
t4 9v412zM569 297z" />
    <glyph glyph-name="uniE61B" unicode="&#xe61b;" 
d="M1022 503q-9 28 -39 32l-296 43l-132 268q-13 27 -43 27t-43 -27l-132 -268l-296 -43q-30 -4 -39 -32t12 -49l215 -209l-51 -294q-5 -29 19 -46.5t50 -3.5l265 139l265 -139q10 -6 22 -6q16 0 28 9q24 18 19 47l-50 294l214 209q21 21 12 49z" />
    <glyph glyph-name="uniE61C" unicode="&#xe61c;" horiz-adv-x="1025" 
d="M1020 508q-6 18 -22 31t-37 16l-266 39l-116 235q-9 19 -27 30t-39.5 11t-40 -11t-27.5 -30l-116 -235l-266 -39q-21 -3 -37 -16t-22 -32q-14 -41 17 -71l195 -191l-45 -265q-3 -20 5 -38.5t25 -30.5q20 -13 43 -13q19 0 36 9l232 123l232 -123q17 -9 36 -9q23 0 43 13
q17 12 25 30.5t5 38.5l-45 265l195 191q32 31 17 72v0zM755 294q-3 -2 -7.5 -7t-10 -20.5t-2.5 -32.5t14 -83t21 -124l10 -58l-232 122q-4 3 -11 5.5t-25.5 3t-35.5 -8.5l-232 -122l45 265q1 4 1.5 10t-4 22t-17 28t-61.5 60t-92 90l-42 41l266 39q5 0 11.5 1.5t21.5 11.5
t23 27q116 236 116 235l116 -235q2 -4 5.5 -10t17.5 -16.5t33 -13.5l266 -39l-195 -191v0zM755 294z" />
    <glyph glyph-name="uniE61D" unicode="&#xe61d;" 
d="M719 -128q-121 0 -206.5 85.5t-85.5 207t85.5 207t207 85.5t207 -85.5t85.5 -207t-85.5 -207t-207.5 -85.5zM719 404q-99 0 -169.5 -70t-70.5 -169.5t70.5 -169.5t170 -70t170 70t70.5 169.5t-70.5 169.5t-170.5 70zM817 91h-151l28 -47q2 -4 -2.5 -10t-12.5 -10
q-20 -11 -25 -3q-57 86 -57 95l1 1v1v3q2 8 8.5 13.5t15.5 5.5h6q2 1 5 0h184q10 0 17 -7t7 -17t-7 -17.5t-17 -7.5zM841 209q-2 -9 -8.5 -14.5t-15.5 -5.5h-6h-5h-184q-10 0 -17.5 7t-7.5 17.5t7.5 17.5t17.5 7h151l-28 48q-2 3 2.5 9t12.5 10q20 12 25 3q57 -85 57 -95v-1
l-1 -1v-1v-1zM695 652q10 0 17 -7t7 -17t-7 -17.5t-17 -7.5h-122q-10 0 -17 7.5t-7 17.5t7 17t17 7h122zM207 213h122q10 0 17 -7t7 -17t-7 -17.5t-17 -7.5h-122q-10 0 -17 7.5t-7 17.5t7 17t17 7zM451 482q10 0 17 -7.5t7 -17.5t-7 -17t-17 -7h-98v-98q0 -10 -7 -17t-17 -7
t-17 7t-7 17v98h-98q-10 0 -17 7t-7 17t7 17.5t17 7.5h98v97h-98q-10 0 -17 7t-7 17.5t7 17.5t17 7h24v49q0 10 7.5 17t17.5 7t17 -7t7 -17v-49h98v49q0 10 7 17t17 7t17.5 -7t7.5 -17v-49h24q10 0 17.5 -7t7.5 -17.5t-7.5 -17.5t-17.5 -7h-97v-98h97v1zM833 774
q0 20 -22.5 42t-42.5 22h-634q-20 0 -42.5 -22t-22.5 -42v-707q0 -20 22.5 -42t42.5 -22h277q6 -12 13 -20.5t17.5 -19t16.5 -18.5h-349q-40 0 -68.5 28.5t-28.5 69.5v755q0 41 28.5 69.5t68.5 28.5h684q40 0 68.5 -28.5t28.5 -69.5v-338q-7 4 -18 11.5t-19.5 12t-19.5 8.5
v282zM833 774z" />
    <glyph glyph-name="uniE61E" unicode="&#xe61e;" 
d="M76 90l-76 74l512 514l512 -514l-76 -74l-436 432z" />
    <glyph glyph-name="uniE61F" unicode="&#xe61f;" 
d="M504 408l-8 4l7 5q40 31 62 76t22 95q0 90 -64 153.5t-154.5 63.5t-155 -63.5t-64.5 -153.5q0 -50 22 -95t62 -76l7 -5l-8 -4q-106 -42 -169 -134.5t-63 -204.5v-74q0 -14 9.5 -23t22.5 -9h673q13 0 22.5 9t9.5 23v74q0 112 -63.5 204.5t-169.5 134.5zM204 588
q0 68 48 116t116 48t116.5 -48t48.5 -116t-48.5 -115.5t-116.5 -47.5t-116 47.5t-48 115.5zM686 19h-635v44q0 131 93 223t224.5 92t224.5 -92t93 -223v-44zM694 516h286q18 0 30.5 9t12.5 25t-11 24.5t-29 8.5h-289q-18 0 -30 -8.5t-12 -25t11.5 -25t30.5 -8.5zM694 516z
M1022 397q0 33 -39 33h-228q-18 0 -29.5 -8.5t-11.5 -24.5t11.5 -24.5t29.5 -8.5h227q18 0 29 8.5t11 24.5zM1022 397zM984 286h-153q-18 0 -29.5 -8.5t-11.5 -24.5t11.5 -25t29.5 -9h152q18 0 29.5 9t11.5 25t-11 24.5t-29 8.5zM984 286z" />
    <glyph glyph-name="uniE620" unicode="&#xe620;" 
d="M622 91q-15 0 -26 11t-11 26v402q0 15 11 26t26 11t25.5 -11t10.5 -26v-402q0 -15 -10.5 -26t-25.5 -11zM402 91q-15 0 -25.5 11t-10.5 26v402q0 15 10.5 26t25.5 11t26 -11t11 -26v-402q0 -15 -11 -26t-26 -11zM987 713h-182v73q0 46 -32 78t-77 32h-367
q-45 0 -77.5 -32t-32.5 -78v-73h-182q-16 0 -26.5 -10.5t-10.5 -26t10.5 -26t26.5 -10.5h950q16 0 26.5 10.5t10.5 26t-10.5 26t-26.5 10.5zM293 786q0 15 10.5 26t25.5 11h367q15 0 25 -10.5t10 -26.5v-73h-438v73zM768 -128h-512q-45 0 -77.5 32t-32.5 78v549
q0 15 11 25.5t26 10.5t25.5 -10.5t10.5 -25.5v-549q0 -15 11 -26t26 -11h512q15 0 26 11t11 26v547q0 16 10.5 26.5t25.5 10.5t26 -10.5t11 -26.5v-547q0 -46 -32.5 -78t-77.5 -32zM768 -128z" />
    <glyph glyph-name="uniE621" unicode="&#xe621;" horiz-adv-x="1025" 
d="M730 263q17 -19 15.5 -45t-20.5 -44q-18 -16 -42 -16q-28 0 -46 21q-50 55 -124.5 55t-124.5 -55q-17 -19 -43 -20.5t-45.5 16t-20.5 43.5t16 45q42 46 98.5 71t118.5 25t119 -25t99 -71zM1005 580q-100 95 -227 146.5t-265.5 51.5t-266 -51.5t-227.5 -146.5
q-18 -18 -19 -44t17.5 -45t44.5 -19.5t44 17.5q82 79 187 121t219 42t219 -42t187 -121q18 -17 43 -17q27 0 46 19q18 19 17.5 45t-19.5 44zM512.5 142q-31.5 0 -54 -22t-22.5 -53.5t22.5 -54t54 -22.5t53.5 22.5t22 54t-22 53.5t-53.5 22zM512.5 568q-100.5 0 -192 -37.5
t-162.5 -108.5q-19 -18 -19 -44t18.5 -44.5t44.5 -18.5t44 18q53 53 122 81.5t144 28.5t144 -28.5t122 -81.5q18 -18 44 -18t45 18q18 19 18 45t-18 44q-71 71 -162.5 108.5t-192 37.5z" />
    <glyph glyph-name="uniE622" unicode="&#xe622;" horiz-adv-x="1025" 
d="M483 844q-19 18 -77 18q-14 0 -33 -6t-31 -12l-12 -6q-35 24 -71 24q-21 0 -38 -6t-27.5 -15.5t-17.5 -18.5t-10 -15l-2 -6q-18 8 -46 8q-46 0 -79 -30.5t-39 -82.5v-153v-160q0 -31 7 -61t17 -51t21 -38t19 -25t11 -8h437q46 3 102 45q2 1 8 7t13.5 12.5t10.5 9.5
q24 20 46 36q97 66 212 69q56 1 89.5 36.5t30.5 91.5q-3 43 -31.5 71.5t-77.5 40.5q-43 12 -112.5 3.5t-138.5 -35.5l-1 148q1 53 -30 90t-80 37q-12 0 -29.5 -4.5t-28.5 -8.5zM483 844zM590 -94h-588v220h588v-220zM590 -94z" />
    <glyph glyph-name="uniE623" unicode="&#xe623;" 
d="M218 -52l432 436l-432 436l74 76l514 -512l-514 -512z" />
    <glyph glyph-name="uniE624" unicode="&#xe624;" 
d="M937 358q17 39 17 64q0 45 -34.5 74t-83.5 28q-121 1 -136 1q25 63 32.5 127t-3.5 104q-11 45 -37.5 71.5t-65.5 28.5q-52 4 -85 -27.5t-34 -82.5q-2 -106 -64 -196q-14 -21 -33 -42q-2 -2 -8.5 -9.5t-11.5 -13t-7 -7.5q-39 -53 -42 -94v-403q0 -3 8 -10.5t23.5 -17.5
t35 -19.5t47 -15.5t56.5 -6h148h141q48 5 76 35.5t28 73.5q0 11 -2 21.5t-3 15.5l-2 5q2 1 6 2.5t13.5 8.5t17 16t14 25.5t6.5 35.5q0 15 -5.5 31t-11.5 25l-6 9q23 42 23 70q0 24 -4 42t-9 24zM937 358zM70 456h204v-543h-204v543zM70 456z" />
    <glyph glyph-name="uniE625" unicode="&#xe625;" 
d="M806 820l-432 -436l432 -436l-74 -76l-514 512l514 512z" />
    <glyph glyph-name="uniE626" unicode="&#xe626;" 
d="M177 656q13 0 21.5 9t8.5 21t-8.5 21t-21.5 9q-10 0 -18 -6.5t-11 -16.5zM142 685.5q0 9.5 5.5 9.5t5.5 -9.5t-5.5 -9.5t-5.5 9.5zM201 685.5q0 9.5 6 9.5t6 -9.5t-6 -9.5t-6 9.5zM172 656q0 3 5.5 3t5.5 -3t-6 -3q-2 0 -3.5 1t-1.5 2zM192 684zM187 684.5q0 4.5 4.5 4.5
t4.5 -4.5t-4.5 -4.5t-4.5 4.5zM165 684zM160 684.5q0 4.5 4.5 4.5t4.5 -4.5t-4.5 -4.5t-4.5 4.5zM182 672q0 -4 -4 -4t-4 4h8zM197 687l-2 -1z" />
    <glyph glyph-name="uniE627" unicode="&#xe627;" 
d="M535 542q9 -9 9.5 -22t-9.5 -22l-272 -273q-9 -9 -22 -9t-23 10q-9 9 -9 22t9 22l272 273q9 9 22.5 9t22.5 -10v0zM806 226q-10 -10 -23 -10t-22 9l-272 272q-9 10 -9 23t9 22q9 10 22.5 10t22.5 -9l272 -273q9 -9 9 -22t-9 -22v0zM512 896q-139 0 -257 -68.5
t-186.5 -186.5t-68.5 -257t68.5 -257t186.5 -186.5t257 -68.5t257 68.5t186.5 186.5t68.5 257t-68.5 257t-186.5 186.5t-257 68.5zM512 -80q-94 0 -180 36.5t-148.5 99t-99 148.5t-36.5 180t36.5 180t99 148.5t148.5 99t180 36.5t180 -36.5t148.5 -99t99 -148.5t36.5 -180
t-36.5 -180t-99 -148.5t-148.5 -99t-180 -36.5z" />
    <glyph glyph-name="uniE628" unicode="&#xe628;" 
d="M363 229v-357h-218v1024h352q382 0 382 -324q0 -157 -115.5 -252t-288.5 -91h-112zM363 727v-331h94q193 0 193 167q0 164 -191 164h-96zM363 727z" />
    <glyph glyph-name="uniE629" unicode="&#xe629;" horiz-adv-x="1025" 
d="M305 595q0 -87 26.5 -181t71.5 -141v-48q-80 -9 -134 -49.5t-95 -104.5q-4 -7 -12 -24t-8 -23q-96 34 -145 85q-19 18 1 50q37 56 94.5 80t143.5 30v25q-56 53 -88 139t-32 183q0 108 48.5 169.5t145.5 68.5q45 3 86 -9q-102 -95 -103 -250zM305 595zM1021 61
q-3 6 -9 15.5t-27 31t-49 39t-78 33t-110 19.5v31q131 94 135 370q2 130 -72 205q-38 39 -92.5 57.5t-116.5 13.5q-240 -18 -240 -275q0 -117 35.5 -212.5t103.5 -159.5v-29q-102 -7 -169 -36.5t-112 -99.5q-7 -11 -6 -24.5t11 -23.5q119 -125 384 -125q156 0 244.5 28.5
t159.5 97.5q19 19 8 44zM1021 61z" />
    <glyph glyph-name="uniE62A" unicode="&#xe62a;" 
d="M835 55h-747v658h264v88h-352v-834h923v263h-88v-175zM835 55zM273 450v44h-58v-338h53v145q0 65 13 92q9 17 35 44q27 13 53 13q24 0 44 -13q13 -9 22 -35q4 -14 4 -75v-171h53v131q0 58 9 93q5 25 35 48q23 17 53 17t43 -13q14 -9 22 -35q5 -13 5 -66v-184h57v184
q0 92 -35 127.5t-79 35.5q-38 0 -75 -22q-28 -17 -44 -49q-5 22 -35 44q-37 22 -70 22q-69 19 -105 -39zM273 450zM883 423l75 79q10 10 18.5 20.5t18 24t11.5 17.5q18 35 18 57q0 39 -31 70q-10 11 -24 16t-24.5 5.5t-30.5 0.5q-44 0 -75 -31q-28 -28 -35 -83h40
q0 35 22 57q17 18 44 18q30 0 47.5 -17.5t17.5 -44.5q0 -24 -13 -44q-17 -26 -44 -52l-127 -136h229v39h-137v4zM883 423z" />
    <glyph glyph-name="uniE62B" unicode="&#xe62b;" 
d="M321 576h-96h-96q-26 0 -44.5 -19t-18.5 -45v-64h637v64q0 27 -18.5 45.5t-44.5 18.5h-96h-96v1q0 79 56.5 135t135.5 56t135 -56.5t56 -134.5v-705h127v705q0 86 -42.5 159.5t-116 116.5t-160 43t-160 -42.5t-116 -116.5t-42.5 -161v0zM66 321q0 26 18.5 44.5t44.5 18.5
q27 0 45.5 -18.5t18.5 -44.5v-257q0 -27 -18.5 -45.5t-45.5 -18.5q-26 0 -44.5 19t-18.5 45v257v0zM321 321q0 26 18.5 44.5t44.5 18.5q27 0 45.5 -18.5t18.5 -44.5v-257q0 -27 -18.5 -45.5t-45.5 -18.5q-26 0 -44.5 19t-18.5 45v257v0zM576 321q0 26 18.5 44.5t44.5 18.5
q27 0 45.5 -18.5t18.5 -44.5v-257q0 -27 -18.5 -45.5t-45.5 -18.5q-26 0 -44.5 19t-18.5 45v257v0zM576 321z" />
    <glyph glyph-name="uniE62C" unicode="&#xe62c;" 
d="M512 815q117 0 217 -57.5t157.5 -157t57.5 -217t-58 -217t-157.5 -157.5t-216.5 -58t-217 58t-157.5 157.5t-57.5 216.5q0 118 57.5 217.5t157.5 157t217 57.5zM512 896q-139 0 -257 -68.5t-186.5 -186.5t-68.5 -257t68.5 -257t186.5 -186.5t257 -68.5t257 68.5
t186.5 186.5t68.5 257q0 104 -40.5 199t-109 163.5t-163.5 109t-199 40.5v0zM791 464q0 -11 -19 -11t-52 5.5t-48 5.5q-12 0 -25.5 -2.5t-22.5 -5.5t-16.5 -4.5t-11.5 1.5t-4 11q0 23 24.5 51.5t55.5 28.5q32 0 75.5 -30.5t43.5 -49.5v0zM232 464q0 -11 19 -11t52.5 5.5
t48.5 5.5q11 0 24.5 -2.5t22.5 -5.5t17 -4.5t11.5 1.5t3.5 11q0 23 -24.5 51.5t-54.5 28.5q-32 0 -76 -30.5t-44 -49.5v0zM785 303q0 -49 -17.5 -97t-50.5 -87.5t-86.5 -64t-118.5 -24.5t-118.5 24.5t-86.5 64t-50.5 87.5t-17.5 97q10 -5 29.5 -12.5t90.5 -20.5t153 -13
t150.5 11.5t95.5 23.5l27 11v0zM785 303z" />
    <glyph glyph-name="uniE62D" unicode="&#xe62d;" 
d="M1024 789h-418v-332h-332v-333h-274v-145h419v332h332v333h273v145zM1024 789z" />
    <glyph glyph-name="uniE62E" unicode="&#xe62e;" 
d="M512 -128q-27 27 -122.5 90.5t-179 115.5t-81.5 50v683q33 -33 72 -46t74.5 -8t71.5 19.5t65 35t52 39.5t35.5 31.5t12.5 13.5q5 -5 13 -13.5t34.5 -31t53 -40.5t64 -34.5t72.5 -20.5t74 9t72 46v-683q-36 -22 -91 -56t-160 -103.5t-132 -96.5zM512 640
q-88 0 -150.5 -62.5t-62.5 -151t62.5 -151t150.5 -62.5t150.5 62.5t62.5 151t-62.5 151t-150.5 62.5zM502 337l-30 -30l-30 30l-60 60l30 30l60 -60l121 121l30 -30l-121 -121v0zM502 337z" />
    <glyph glyph-name="uniE62F" unicode="&#xe62f;" 
d="M1024 141h-1024v133h1024v-133v0zM70 12v88h-70v-88h70v0zM1024 12v88h-70v-88h70v0zM517 756h-7q-262 -2 -457 -94v-215q47 34 109 59l-8 53q21 43 76.5 67t115.5 18.5t92 -40.5l6 -37q37 2 67 2h6q32 0 63 -2l6 36q32 35 92 41t115.5 -18t76.5 -67l-8 -51
q62 -26 109 -60v216q-192 92 -454 92v0zM13 331q54 83 189.5 133t308.5 51h6q172 0 304.5 -49.5t189.5 -134.5l11 -15h-1020zM13 331z" />
    <glyph glyph-name="uniE630" unicode="&#xe630;" 
d="M952 72q0 -16 -12.5 -28t-29.5 -12h-796q-17 0 -29.5 12t-12.5 28q0 12 8 25h1q3 4 6 7l77 72v288q0 117 76.5 205.5t194.5 114.5v32q0 33 21.5 56.5t54.5 23.5t54.5 -23.5t21.5 -56.5v-32q117 -26 194 -115t77 -205v-288l77 -73q3 -2 6 -6l1 -1q10 -10 10 -24v0z
M758 464q0 96 -72.5 164t-173.5 68t-173.5 -68t-72.5 -164v-336h491v336h1zM512 -128q-45 0 -73.5 26.5t-28.5 69.5h204q0 -42 -28.5 -69t-73.5 -27v0zM512 -128z" />
    <glyph glyph-name="uniE631" unicode="&#xe631;" horiz-adv-x="1025" 
d="M905 796q-11 22 -38 22h-825q-27 0 -38 -22.5t6 -40.5l293 -314v-354q0 -24 24 -35l216 -99q9 -3 19 -3q12 0 22 5q19 11 20 32l15 454l281 314q17 19 5 41zM522 50l-134 61v305h146zM557 493q-1 0 -3.5 0.5t-3.5 0.5h-185l-231 247h644zM557 493zM711 370h313v-68h-313
v68zM711 370zM711 221h313v-68h-313v68zM711 221zM711 85h313v-68h-313v68zM711 85z" />
    <glyph glyph-name="uniE632" unicode="&#xe632;" 
d="M258 442h248v-73h-248v73zM258 572v-74h248v74h-248zM258 312v-73h508v73h-508zM258 183v-73h508v73h-508zM912 598l5 -13v-611q0 -42 -29.5 -72t-72.5 -30h-606q-43 0 -72.5 30t-29.5 72v820q0 42 29.5 72t72.5 30h426zM685 542q-42 0 -71.5 29.5t-29.5 71.5v180h-376
q-11 0 -19.5 -8.5t-8.5 -19.5v-822q0 -11 8.5 -19.5t19.5 -8.5h607q11 0 19 7.5t9 18.5v571h-158zM657 643q0 -11 8.5 -19.5t19.5 -8.5h112l-140 149v-121z" />
    <glyph glyph-name="uniE633" unicode="&#xe633;" horiz-adv-x="1025" 
d="M728 100q90 84 123 206.5t0 247.5q-32 119 -115 205.5t-195 119.5t-225 3q-68 -18 -126 -57.5t-98 -93.5t-65 -119.5t-26.5 -136.5t16.5 -145q32 -119 115 -205.5t195 -120t225 -2.5q15 4 22.5 18t3.5 29.5t-18 24t-29 4.5q-93 -25 -185.5 2.5t-161 99t-95.5 170.5
q-21 75 -10.5 148.5t43 135t88.5 107.5t126 64q94 25 186.5 -2.5t161 -98.5t95.5 -170q29 -109 -3 -214.5t-114 -173.5q-12 -10 -13 -26q-11 -12 -10 -27.5t12 -26.5l182 -182q12 -12 28.5 -12t28 11.5t11.5 28t-12 28.5zM728 100z" />
    <glyph glyph-name="uniE634" unicode="&#xe634;" 
d="M952 203q14 -6 30 -10q16 -6 20.5 -11.5t4.5 -22.5v-12h-41q-18 0 -20 -14q0 -7 5 -11.5t14 -4.5h41v-51v-26q0 -7 6 -14q4 -4 9 -19v-10q1 -19 -6.5 -26t-24.5 -9l-10 -1q-9 -1 -14 -2q4 79 -51 127q-41 37 -98 34q-41 -2 -76 -26q-34 -23 -50 -62q-15 -38 -9 -79h-342
q11 85 -54 137q-44 35 -105 29q-55 -6 -94.5 -55t-28.5 -118q-28 4 -43 7q-4 1 -8 5q-7 9 -6.5 28.5t8.5 26.5q4 4 6 13l3 46q0 11 11 12q8 1 31 5q8 2 12 7t3 12q-3 14 -20 12q-11 -2 -31 -6q-4 13 11 23q43 28 97 43q17 5 37 10t43.5 10t37.5 8q8 2 12 6q68 57 144 93
q54 27 143 33q78 4 159 -8q33 -6 68 -26q51 -30 96 -62q28 -20 55 -12q8 2 28 5q19 3 23 -13q3 -17 -16 -20q-1 0 -4 -0.5t-4 -0.5q-2 1 -2 0zM615 291q-166 19 -308 -103q24 -5 51.5 -8t47.5 -4.5t52.5 -0.5t47.5 2l52 3q38 3 49 3q7 78 8 108zM649 289q-1 -16 -3.5 -50.5
t-3.5 -52.5q95 9 137 12q-54 77 -130 91zM593 117h18h2q7 0 11.5 5t4.5 11q-2 13 -17 14h-38q-7 0 -11.5 -4t-4.5 -11q0 -6 4.5 -10.5t11.5 -4.5q3 -1 5.5 -1t6.5 0.5t7 0.5zM593 117zM245 896h185q23 0 41 -17.5t18 -40.5v-108q0 -24 0.5 -71.5t0.5 -71.5q0 -14 0.5 -38
t0.5 -44t-1 -38q0 -27 -20.5 -44.5t-43.5 -15.5h-34q-22 0 -34 1h-54h-68h-46h-117q-31 0 -46 12q-25 20 -27 54q0 237 1 355q0 52 48 65q8 2 11 2h185zM69 846q-16 0 -16 -16v-353v178v-178v0q2 -19 22 -19q15 0 44.5 0.5t44.5 0.5h117h46q10 0 29.5 -0.5t35.5 -0.5t30 1
q18 0 18 19v99v142v108q0 11 -3.5 15.5t-14.5 5.5h-6zM824 -126q-44 0 -74 30.5t-30 75.5q0 43 30 73t73 30t73.5 -29.5t32.5 -69.5q1 -47 -30.5 -79t-74.5 -31zM863 -23q0 16 -11.5 28t-27 12t-28 -11.5t-12.5 -27t12 -27t27 -11.5q16 -1 28 10.5t12 26.5zM863 -23zM94 -22
q0 42 29.5 72.5t70.5 31.5q45 1 76.5 -30t31.5 -74t-30 -74t-73 -31q-45 1 -75 31t-30 74zM198 17q-16 0 -27.5 -11.5t-11.5 -27.5t11.5 -27.5t27.5 -10.5q16 0 27.5 11.5t11.5 28.5q0 15 -11.5 26t-27.5 11zM198 17zM134 505v290q2 0 5 0.5t4 0.5h37h44h37q70 -2 93 -55
q13 -31 10 -61.5t-27 -54.5t-63 -30q-13 -2 -63 -2h-12v-87q-23 -1 -65 -1zM199 648h50q2 0 6 0.5t6 0.5q17 3 27 14t10 27q2 40 -35 46l-63 3v-91h-1zM199 648z" />
    <glyph glyph-name="uniE635" unicode="&#xe635;" horiz-adv-x="1355" 
d="M898 92q-36 0 -60 27q-65 71 -161 71t-160 -71q-22 -25 -55.5 -26.5t-58.5 21t-27 56t21 58.5q54 59 127 91.5t153 32.5t153.5 -32.5t127.5 -91.5q22 -25 20.5 -58.5t-26.5 -56.5q-23 -21 -54 -21zM1077 295q-33 0 -57 23q-69 69 -157.5 105.5t-185.5 36.5t-185.5 -36.5
t-157.5 -104.5q-24 -24 -57.5 -24t-57 24t-23.5 57.5t24 57.5q91 91 209.5 139.5t247.5 48.5q130 0 248 -48.5t210 -140.5q23 -23 23 -56.5t-23 -57.5q-24 -24 -58 -24zM1257 497q-33 0 -56 23q-106 102 -241.5 156t-282.5 54t-282 -54t-241 -156q-25 -23 -58.5 -22.5
t-56.5 25t-22.5 58t24.5 56.5q129 123 293 189t343 66t343 -66t293 -189q24 -23 24.5 -57t-22.5 -58q-24 -25 -58 -25zM579 -26q0 -41 29 -69.5t69.5 -28.5t69 28.5t28.5 69t-28.5 69.5t-69 29t-69.5 -29t-29 -69z" />
    <glyph glyph-name="uniE636" unicode="&#xe636;" horiz-adv-x="1027" 
d="M870 764q30 17 46.5 30.5t19.5 24.5t1.5 17t-8.5 18q-18 31 -84.5 26.5t-129.5 -41.5q-70 -40 -155 -89l-179 120q-15 12 -39 13.5t-34 -8.5l-31 -21q-10 -10 -7.5 -26t15.5 -29l132 -131q-155 -89 -157 -92q-92 61 -118 72q-17 8 -25.5 11t-28.5 9t-36 5.5t-28 -7.5
l-6 -3q-17 -10 -18 -27t15 -31l175 -150q24 -21 59.5 -25t61.5 11zM992 179h-32q0 6 -0.5 15t-4 34.5t-9.5 48.5t-19 50t-31 44q-28 28 -76 44.5t-82 17.5l-34 2q0 3 -0.5 7.5t-4 15.5t-9.5 19t-19 15t-31 7t-31 -6.5t-19 -16t-9.5 -18.5t-4.5 -16v-7q-5 0 -13 -0.5
t-32 -4.5t-46 -10t-50.5 -19t-50.5 -30q-28 -28 -44 -76t-18 -82l-2 -34h-32q-4 0 -9 -0.5t-14 -8.5t-9 -22.5t8 -22.5t16 -9l8 -1h32v-127q0 -24 20.5 -44.5t43.5 -20.5t43.5 20.5t20.5 44.5v63h384v-64q-2 -23 19 -43.5t45 -20.5q23 0 43.5 20.5t20.5 44.5v127h32q4 0 9 1
t14 9t9 22.5t-8 22.5t-16 8zM480 115h-64q-13 0 -22.5 9.5t-9.5 22.5q0 14 9.5 23t22.5 9h64q13 0 22.5 -9.5t9.5 -22.5t-9 -22.5t-23 -9.5zM864 115h-64q-13 0 -22.5 9.5t-9.5 22.5q0 14 9 23t23 9h64q13 0 22.5 -9.5t9.5 -22.5t-9 -22.5t-23 -9.5zM640 243h-256
q0 21 13 52t38 51q18 14 58 20.5t65.5 7.5t81.5 1q54 0 85 -1t70.5 -8t55.5 -20q23 -23 34 -53t11 -50h-256z" />
    <glyph glyph-name="uniE637" unicode="&#xe637;" 
d="M546 179h-205v-68h205v68zM273 179h-136v-68h136v68zM85 43q-6 0 -11.5 5t-5.5 12v324h888v-324q0 -7 -5 -12t-12 -5h-854zM939 725q7 0 12 -5t5 -12v-119h-888v119q0 7 5 12t12 5h854zM85 794q-35 0 -60 -25.5t-25 -60.5v-648q0 -35 25 -60.5t60 -25.5h854q35 0 60 25.5
t25 60.5v648q0 35 -25 60.5t-60 25.5h-854z" />
    <glyph glyph-name="uniE638" unicode="&#xe638;" horiz-adv-x="1027" 
d="M1012 428q-180 176 -274 265q-82 81 -164 160q-14 14 -35 20q-1 0 -6 1h-16q-4 -1 -7 -2q-20 -4 -35 -18q-38 -36 -117.5 -109.5t-119.5 -111.5q-27 -24 -73.5 -67.5t-85 -79.5t-73.5 -68l-2 -1q-1 -1 -2 -1v-30q2 -4 3 -8q4 -22 18 -35q13 -12 28 -17q5 -3 16 -3h63h7
v-5v-294v-50q0 -14 4 -30q11 -38 49 -48q9 -2 17 -2h2l1 -1h600q5 2 12 2q51 11 71 61q1 2 2 6t2 5q2 7 2 20v331v7h6h58q34 -1 55 32q6 8 8 24v4v4v25q-1 2 -6.5 6.5t-7.5 7.5zM967 374h-6h-107h-7v-5v-114v-103q0 -27 -0.5 -81.5t-0.5 -81.5v-6q-6 -15 -14 -24
q-14 -15 -34 -15h-213h-95q-27 0 -82 -0.5t-82 -0.5q-18 1 -54 1t-54 1q-4 0 -10 1q-20 5 -22 28q-1 4 -1 11v381v7q-4 0 -7 1h-104q-8 0 -9 3q-4 6 -3 11q1 6 7 11q11 11 35 32.5t35 31.5q117 107 175 160q20 18 55.5 50.5t65 59t55.5 49.5q10 10 26 12q27 7 48 -12
l190 -183q78 -77 116 -115q33 -33 99 -97q0 -1 1 -2l1 -1q3 -2 1.5 -5t-5.5 -5zM718 490q-100 54 -207 54q-109 0 -207 -54q-51 -29 -78 -56q-17 -16 -17 -39.5t17 -40.5q16 -16 40 -16t40 16q19 19 57 39q73 39 149 39q79 0 149 -39q41 -23 57 -39t40 -16q25 0 40 16
q17 17 17 40.5t-17 39.5q0 1 -9.5 8.5t-29 21.5t-41.5 26zM676 298q-4 4 -9 8.5t-21.5 15.5t-33.5 19t-44.5 14.5t-56.5 6.5t-56 -6.5t-44.5 -14.5t-34 -19t-21 -15.5t-9.5 -8.5q-16 -17 -16 -40.5t16 -40.5q17 -17 40 -17q25 0 40 17q4 4 11 9.5t29 14.5t44.5 9t43.5 -8
t31 -17l9 -8q17 -17 40 -17q25 0 40 17q18 16 18.5 40t-16.5 41zM511 180q-25 0 -43 -18t-18 -43t18 -43t43 -18t43 18t18 43t-18 43t-43 18z" />
    <glyph glyph-name="uniE639" unicode="&#xe639;" 
d="M1024 379l-158 -34v-197l-275 79v78h39v79l149 32l86 81l-28 169l-509 -81q-6 19 -14 35l571 90l-93 162l-62 24l-730 -116l3 -81l99 -107l44 6l-21 134l-84 -14l-1 29l121 19l7 -2l85 -101q-20 -8 -29 -43t-1 -79q7 -47 28.5 -78.5t44.5 -27.5q22 3 33 37l8 -51l-84 -88
l220 51v-79h39v-118l354 -118v-158l158 -39v507zM270 600q10 1 19 -12.5t12.5 -34t-1 -36t-14.5 -17t-19.5 12t-12.5 34t1.5 36t14.5 17.5v0zM274 355l-29 -27l-100 61l-29 182l39 6l26 -164z" />
    <glyph glyph-name="uniE63A" unicode="&#xe63a;" 
d="M338.5 725q35.5 0 60.5 25t25 60t-25 60t-60.5 25t-60.5 -25t-24.5 -60t25 -60t60 -25zM399 -54q-110 0 -186.5 78t-76.5 189q0 121 93 201l-6 83q-71 -45 -113.5 -121t-42.5 -163q0 -140 97.5 -238.5t234.5 -98.5q97 0 181 61t123 152l-50 68q-18 -91 -89.5 -151
t-164.5 -60zM916 110h-43l-170 234q-35 62 -85 62h-190v85h170q45 0 45 32t-45 32h-170v85q-5 64 -85 62q-64 -2 -65 -62v-296q7 -64 85 -64h255l149 -191l42 -64h107q17 0 29.5 12.5t12.5 30t-13 29.5q-12 13 -29 13z" />
    <glyph glyph-name="uniE63B" unicode="&#xe63b;" horiz-adv-x="1025" 
d="M862 761h-142v33h-85q-10 43 -44.5 70.5t-79.5 27.5t-79.5 -27.5t-44.5 -70.5h-85v-33h-142q-66 0 -113 -47t-47 -113v-556q0 -66 47 -113t113 -47h96v59h-96q-42 0 -71.5 29.5t-29.5 71.5v556v10q4 39 33 65t68 26h134v-163h8h8h402h9h8v163h133q39 0 68 -26t33 -65
q1 -5 1 -10v-556q0 -42 -30 -71.5t-72 -29.5h-96v-59h96q66 0 113 47t47 113v556q0 66 -47 113t-113 47zM369 598v137h73v29q0 29 20.5 49t49 20t48.5 -20t20 -49v-29h73v-137h-284zM657 189q29 49 29 106q0 80 -51.5 137t-123.5 57t-123 -57t-51 -137q0 -57 28 -106
q-69 -53 -69 -124v-56q0 -18 7 -37.5t21.5 -40t43 -33.5t65.5 -13h156q38 0 66 13t42.5 33.5t21.5 40.5t8 38v55q0 71 -70 124zM511 430q48 0 82 -39.5t34 -95.5q0 -50 -27.5 -87.5t-68.5 -45.5h-39q-41 8 -68.5 45.5t-27.5 87.5q0 56 33.5 95.5t81.5 39.5zM668 11
q0 -6 -2 -14t-9 -21.5t-24.5 -22.5t-43.5 -9h-156q-25 0 -42 8t-24 21.5t-9.5 21.5t-2.5 15v55q0 43 47 79q22 -20 50 -31l29 -88q7 -20 28 -20t28 20l29 86q30 10 54 33q48 -36 48 -79v-54z" />
    <glyph glyph-name="uniE63C" unicode="&#xe63c;" 
d="M1014 348l-142 455l-727 -154l34 -113l-171 -45q80 -254 132 -421q39 -122 133 -105q27 5 47 17q549 231 632 266q22 9 36.5 23t19.5 27t6.5 24.5t0.5 18.5zM198 98l-108 346l109 25l134 -448l47 29q-114 -61 -167 16q-11 16 -15 32zM931 285q-104 -40 -226 -90l-78 248
l-255 -79l86 -275q-41 -19 -67 -33l-134 426l-37 119l634 146q98 -314 118 -376q5 -18 3 -32.5t-9 -24.5t-15 -16.5t-14 -9.5zM892 511l-212 -67l17 -53l211 71zM708 357l16 -53l209 78l-15 49zM415 594l13 -43q11 -34 22 -60q-22 26 -40 43l-49 47l-42 -11l47 -150l32 9
l-14 45q-11 37 -22 65h1q17 -20 43 -45l50 -48l35 11l-45 145zM544 500l-11 34l51 14l-8 26l-51 -13l-9 29l54 14l-8 26l-87 -21l45 -144l89 26l-8 26zM678 575q-1 16 -6 44h1q5 -14 19 -40l29 -55l30 9l-10 141l-28 -7l7 -57q6 -45 7 -49q-13 27 -21 43l-28 54l-31 -7
l7 -59q4 -33 6 -50q-18 35 -23 45l-28 54l-32 -8l75 -130l32 10zM807 609q22 -2 25 -13q5 -13 -14 -19q-15 -4 -32 0l2 -26q16 -4 36 2q23 6 31.5 21t2.5 32q-8 26 -42 30q-24 4 -27 13q-4 12 13 17q14 3 26 0l-1 25q-14 3 -32 -1q-20 -5 -29 -19.5t-4 -31.5q8 -26 45 -30z
" />
    <glyph glyph-name="uniE63D" unicode="&#xe63d;" 
d="M525.5 533q19.5 0 33.5 13t14 32t-14 32t-33.5 13t-33 -13t-13.5 -32t13.5 -32t33 -13zM143 -111h102v990h-102v-990zM501 725h34v126l68 -48v34l-85 59l-85 -59v-34l68 48v-126zM296 77h444v614h-444v-614zM330 657h376v-546h-376v546zM791 879v-990h102v990h-102z
M587 518h-144q-21 3 -27 -15v-135q0 -1 0.5 -3.5t4 -6t10.5 -3.5q16 -1 16 14v82q9 18 16 -1v-290v-4q0 -2 4 -6.5t11 -4.5h16q16 0 16 15v135q0 7 8 7q8 -2 8 -8v-135q0 -1 0.5 -3.5t4 -6.5t10.5 -4h16q16 1 16 14v292l2 4q1 2 5 4t9 -8v-82q1 -1 0 -4t3.5 -7t12.5 -4
q7 0 10.5 3.5t4.5 7.5v3v135q0 1 -2.5 4.5t-10.5 7t-20 3.5zM535 43h-34v-126l-68 48v-34l85 -59l85 59v34l-68 -48v126z" />
    <glyph glyph-name="uniE63E" unicode="&#xe63e;" 
d="M744 588v-410q0 -5 5 -7q81 -37 236 -108l4 -2v644q-1 -1 -3 -1l-1 -1q-165 -75 -236 -108q-5 -2 -5 -7zM727 80q18 -16 99.5 -92t124.5 -116l19 19l22 22q-15 14 -97.5 90.5t-126.5 116.5l-20 -20q-16 -16 -21 -20zM992 856q-6 6 -21.5 21t-19.5 19q-110 -102 -224 -208
q5 -5 20.5 -20t20.5 -20q206 191 224 208zM32 539v-320q0 -17 12.5 -30.5t29.5 -13.5h623v410h-616q-18 0 -33.5 -15t-15.5 -31zM153 447q0 9 6 15t15 6h200q8 0 14.5 -6t6.5 -15v-17q0 -9 -6.5 -15t-14.5 -6h-200q-9 0 -15 6t-6 15v17zM153 330q0 9 6 15t15 6h200
q8 0 14.5 -6t6.5 -15v-17q0 -9 -6.5 -15t-14.5 -6h-200q-9 0 -15 6t-6 15v17z" />
    <glyph glyph-name="uniE63F" unicode="&#xe63f;" 
d="M658 896q25 0 37.5 -0.5t33 -2.5t31.5 -6.5t23 -12.5t17 -21t5 -31v-146q-4 -3 -11 -9t-25 -22.5t-31 -33t-24 -38.5t-11 -40l-1 -149h-383q1 73 -1 149q-1 21 -11.5 43.5t-24.5 39.5t-28 31t-24 22l-10 7v146q0 18 5 31.5t17 21t23 12t31.5 6.5t33.5 2.5t38 0.5h74h94
h83h39zM72 164q0 -58 79 -71l22 -2l2 -219h117v220l440 2v-220h114v217q4 0 11 0.5t25.5 4.5t32 11t25 22t11.5 35v202q23 9 40.5 32.5t25 51t-1 57.5t-34.5 51q-33 25 -73 28.5t-71.5 -10.5t-53 -42t-21.5 -59v-163l-501 -1v155q0 48 -29 80t-68.5 39t-80.5 -8t-63 -52
q-23 -34 -17 -63t21.5 -45.5t32 -30t16.5 -16.5q-1 -42 -1 -206zM892 605q-53 0 -90.5 -37.5t-37.5 -90.5t37.5 -90.5t90.5 -37.5t90.5 37.5t37.5 90.5t-37.5 90.5t-90.5 37.5zM129 605q-52 0 -89.5 -37.5t-37.5 -90.5t37 -90.5t90 -37.5t90.5 37.5t37.5 90.5t-37.5 90.5
t-90.5 37.5z" />
    <glyph glyph-name="uniE640" unicode="&#xe640;" 
d="M437 651.5q0 -24.5 17.5 -42t42 -17.5t42 17.5t17.5 42.5q0 24 -17.5 42t-42 17.5t-42 -18t-17.5 -42zM399 199q0 -40 28.5 -68.5t69 -28.5t69 28.5t28.5 68.5q0 41 -28.5 69.5t-69 28.5t-69 -28.5t-28.5 -69.5zM813 896h-633q-6 0 -6 -7v-1000q0 -6 6 -6h633q7 0 7 6
v1000q0 7 -7 7zM496.5 796q59.5 0 102 -42.5t42.5 -102t-42.5 -102t-102 -42.5t-102 42.5t-42.5 102t42.5 102t102 42.5zM497 -25q-93 0 -159 65.5t-66 158.5t66 159t159 66t158.5 -66t65.5 -159t-65.5 -158.5t-158.5 -65.5z" />
    <glyph glyph-name="uniE641" unicode="&#xe641;" 
d="M196 896h631q41 -117 59 -214t10.5 -181t-44 -145.5t-108.5 -102.5t-179 -55h-2v-212q100 -13 200 -76v-38h-502v38q101 63 200 76v212h-7q-79 13 -138.5 40t-98 64t-60.5 86t-29 104t0 121.5t24 135t44 147.5zM234 838q-55 -131 -43 -262h634q10 116 -44 264z" />
    <glyph glyph-name="uniE642" unicode="&#xe642;" 
d="M990 302q-4 29 -20.5 50.5t-37.5 32t-41 17t-34 7.5l-13 1q0 15 -11 28t-22 19l-11 5h-630q-18 0 -30 -14t-14 -28l-3 -14q3 -89 24.5 -165t50 -121.5t58 -78t47.5 -45t20 -12.5h331q21 15 49 49t45.5 59.5t17.5 26.5q8 -3 47.5 -0.5t60.5 7.5q12 2 32 15.5t41.5 35.5
t34.5 55.5t8 69.5zM350 38q-32 24 -58 57t-40.5 66.5t-25 68.5t-14.5 65t-5.5 54t-0.5 38v14h89q-12 -33 -14 -71t5.5 -74.5t15.5 -67t21.5 -60.5t19.5 -42t13 -25q8 -12 4.5 -16.5t-5.5 -5.5t-5 -1zM866 183q-18 -11 -36 -13t-27 1l-8 3q19 27 30.5 71t13.5 75l2 30
q2 0 6.5 2.5t10 4t19 -6t32.5 -26.5t22 -41t-7.5 -41t-25 -34t-32.5 -25zM99 -110h745q27 0 46.5 20.5t19.5 49.5h-877q0 -29 19 -49.5t47 -20.5zM335 805q-5 -3 -13.5 -9t-26.5 -23.5t-28 -35.5t-7 -42t26 -45q31 -28 46 -48t16 -40t-7 -37t-28 -44q4 2 10 5.5t21 15
t25.5 24t18 31.5t4.5 39q-4 23 -20 46t-32 38t-25.5 33.5t-3.5 34.5zM626 848q-6 -4 -14 -9.5t-26.5 -23.5t-28 -35.5t-6.5 -42t26 -45.5q31 -28 46 -48t16 -40t-7 -36.5t-28 -44.5q4 2 10 5.5t21 15t25.5 24t18 32t3.5 38.5q-3 23 -19 46t-32 38t-25.5 33.5t-3.5 34.5z
M489 878q-3 0 -9 -1t-20.5 -6.5t-27 -14t-24.5 -25.5t-16 -39q-5 -13 -3 -27.5t3 -24t7 -20.5t10.5 -17.5t13 -15.5t14.5 -15t15.5 -14.5t15.5 -14.5q28 -31 20.5 -78t-42.5 -88q3 1 8.5 3.5t20.5 11.5t27 19.5t24.5 29.5t18.5 40q4 19 3.5 35.5t-1.5 27t-10.5 25t-13 19.5
t-18.5 21.5t-19 20.5q-29 34 -27.5 82.5t30.5 65.5z" />
    <glyph glyph-name="uniE643" unicode="&#xe643;" 
d="M340 274l-7 -123q-29 29 -65 29q-46 0 -77.5 -42t-31.5 -103t31.5 -102.5t77.5 -41.5q27 0 52 17q25 18 40.5 52t15.5 75v154q0 15 5 32q-13 32 -41 53zM324 -2q-7 -27 -22.5 -43.5t-33.5 -16.5q-26 0 -44 29t-18 68.5t18 68.5t44 29q21 0 38 -21.5t22 -54.5q2 -11 2 -22
q0 -19 -6 -37zM670 -59q-23 4 -45 19q-1 1 -3 2q15 33 15 73q0 61 -31.5 103t-77.5 42q-36 0 -65 -29l-39 688q0 11 -7.5 18.5t-18.5 7.5t-19 -7.5t-8 -18.5l-30 -531q35 -15 57 -47t22 -71v-154q0 -42 15 -76t41 -52q24 -17 52 -17q39 0 69 32v-1q28 -20 64 -27q2 -1 4 -1
q9 0 15.5 5.5t7.5 13.5q2 10 -3.5 18t-14.5 10zM398 322q-9 0 -15.5 6.5t-6.5 15.5t6.5 15.5t15.5 6.5t15.5 -6.5t6.5 -15.5t-6.5 -15.5t-15.5 -6.5zM528 -62q-18 0 -33.5 16.5t-22.5 43.5q-5 18 -5 37q0 11 1 22q5 33 22 54.5t38 21.5q26 0 44 -29t18 -68.5t-18 -68.5
t-44 -29zM828 865h-6h-6h-187v-29h154v-1v-2v-31h-154v-29h154v-33h-154v-30h154v-33h-154v-30h154v-33h-154v-30h154v-33h-154v-30h154v-33h-154v-29h154v-34h-154v-29h154v-473q0 -13 9.5 -22.5t22.5 -9.5h13q13 0 22.5 9.5t9.5 22.5v910q0 13 -9.5 22.5t-22.5 9.5z" />
    <glyph glyph-name="uniE644" unicode="&#xe644;" 
d="M983 647l-93 28q-14 74 -69 119.5t-131 45.5q-75 0 -130 -43.5t-71 -113.5l-141 -41q-5 -2 -13 -2q-10 0 -15 2l-248 71q-6 3 -16 3q-21 0 -35.5 -15t-14.5 -36v-598q0 -17 10 -30.5t25 -17.5l279 -86q5 -3 15 -3t13 3l326 94q5 2 13 2q10 0 15 -2l248 -76q6 -3 16 -3
q21 0 35.5 15t14.5 36v600q2 17 -7.5 30.5t-25.5 17.5zM335 586v-605l-279 86v598l251 -73q5 -2 14 -3t14 -3v0zM689.5 789q64.5 0 108.5 -42t44 -105q0 -51 -38 -104q-33 -45 -114 -167q-16 22 -56 82t-58 85q-38 54 -38 104q0 63 43.5 105t108 42zM968 -4l-248 76h-5v5
v152q0 12 -7 19t-18.5 7t-18.5 -7t-7 -19v-152v-5h-5l-273 -76v590q0 3 -1.5 7t-1.5 6l107 31q2 -53 45 -119q16 -23 56.5 -81.5t57.5 -83.5q15 -23 43 -23t43 23q68 104 114 165q43 61 46 114l76 -23v-606h-3zM689.5 561q32.5 0 54.5 22t22 54t-22 54t-54.5 22t-54 -22
t-21.5 -54t21.5 -54t54 -22zM689.5 662q11.5 0 18.5 -7t7 -18t-7 -18t-18.5 -7t-18.5 7t-7 18t7 18t18.5 7z" />
    <glyph glyph-name="uniE645" unicode="&#xe645;" 
d="M992 896h-960q-13 0 -22.5 -9.5t-9.5 -22.5v-896q0 -13 9.5 -22.5t22.5 -9.5h144q-3 -8 -3 -16q0 -20 14 -34t34 -14t34 14t14 34q0 8 -3 16h416q-3 -8 -3 -16q0 -20 14 -34t34 -14t34 14t14 34q0 8 -3 16h220q13 0 22.5 9.5t9.5 22.5v896q0 13 -9.5 22.5t-22.5 9.5z
M976 16q0 -13 -9.5 -22.5t-22.5 -9.5h-864q-13 0 -22.5 9.5t-9.5 22.5v800q0 13 9.5 22.5t22.5 9.5h864q13 0 22.5 -9.5t9.5 -22.5v-800zM904 800h-784q-13 0 -22.5 -9.5t-9.5 -22.5v-704q0 -13 9.5 -22.5t22.5 -9.5h784q13 0 22.5 9.5t9.5 22.5v704q0 13 -9.5 22.5
t-22.5 9.5zM664 224q-80 0 -136 56t-56 136t56 136t136 56t136 -56t56 -136t-56 -136t-136 -56zM664 416zM584 416q0 33 23.5 56.5t56.5 23.5t56.5 -23.5t23.5 -56.5t-23.5 -56.5t-56.5 -23.5t-56.5 23.5t-23.5 56.5zM536 416zM512 416q0 10 7 17t17 7t17 -7t7 -17t-7 -17
t-17 -7t-17 7t-7 17zM792 416zM768 416q0 10 7 17t17 7t17 -7t7 -17t-7 -17t-17 -7t-17 7t-7 17zM754 325zM730 325.5q0 9.5 7.5 16.5t17 7t16.5 -7t7 -16.5t-7 -17t-16.5 -7.5t-17 7.5t-7.5 17zM574 507zM550 506.5q0 9.5 7 17t16.5 7.5t17 -7.5t7.5 -17t-7.5 -16.5t-17 -7
t-16.5 7t-7 16.5zM664 288zM640 288q0 10 7 17t17 7t17 -7t7 -17t-7 -17t-17 -7t-17 7t-7 17zM664 544zM640 544q0 10 7 17t17 7t17 -7t7 -17t-7 -17t-17 -7t-17 7t-7 17zM574 325zM550 325.5q0 9.5 7 16.5t16.5 7t17 -7t7.5 -16.5t-7.5 -17t-17 -7.5t-16.5 7.5t-7 17z
M754 507zM730 506.5q0 9.5 7.5 17t17 7.5t16.5 -7.5t7 -17t-7 -16.5t-16.5 -7t-17 7t-7.5 16.5z" />
    <glyph glyph-name="uniE646" unicode="&#xe646;" 
d="M692 260q-117 8 -183 8t-182 -8q-87 -5 -122 -5q-45 0 -73 5q0 -15 1 -27t7 -36.5t16.5 -41t32.5 -29.5t53 -13h530q32 0 55 13t34 28.5t17.5 39.5t7.5 36t1 26v4q-33 -6 -74 -6q-31 0 -121 6zM701 586l99 -299h50q20 0 45.5 2t41.5 6.5t31 12t22 19.5t7 29
q0 64 -83.5 130t-212.5 100zM519 297l-150 300q-100 -19 -184 -61l172 -241q46 3 77 3.5t55.5 -0.5t29.5 -1zM298 291l-157 220q-56 -36 -87.5 -76.5t-31.5 -79.5q0 -26 14 -41t42.5 -20.5t70 -6t96.5 2.5q34 1 53 1zM746 290l-103 308q-66 12 -133 12q-44 0 -88 -5
l152 -308q107 -3 172 -7z" />
    <glyph glyph-name="uniE647" unicode="&#xe647;" horiz-adv-x="1067" 
d="M1028 810q0 35 -25 60t-61 25h-818q-35 0 -60 -25t-25 -60l-39 -852q0 -35 25 -60t61 -25h895q35 0 60 25t25 60zM533 299q-87 0 -161 43t-117 117t-43 161q0 5 1 22t13.5 29t30 12t30 -12t12.5 -29h1q0 -1 -1 -10t-1 -14q0 -97 68.5 -165.5t165.5 -68.5t166 68.5
t69 165.5q0 6 -1 15q-1 2 -1 5q0 2 -1 4h1q0 18 13 30.5t31 12.5t31 -13t13 -31v0q1 -15 1 -21q0 -87 -43 -161t-117 -117t-161 -43z" />
    <glyph glyph-name="uniE648" unicode="&#xe648;" 
d="M512 -43q-177 0 -302 125t-125 302t125 302t302 125t302 -125t125 -302q0 -15 9 -24t24 -9t24 9t9 24q0 100 -39 191.5t-105 157.5t-157.5 105t-192 39t-191.5 -39t-157 -105t-105 -157.5t-39 -191.5t39 -191.5t105 -157.5t157.5 -105t191.5 -39q15 0 24 9t9 24t-9 24
t-24 9zM561 647h-115h-16h-49v-49v-198v-279h65v230h115q62 0 105 43t43 105t-43 105t-105 43zM561 417h-115v164h115q35 0 58.5 -23.5t23.5 -58.5t-23.5 -58.5t-58.5 -23.5zM972 56h-99v65h66q12 0 22.5 10.5t10.5 22.5t-10.5 22.5t-22.5 10.5h-43l33 33q10 9 10 22.5
t-10 23t-23 9.5t-23 -9l-43 -43l-42 43q-10 9 -23 9t-23 -9.5t-10 -22.5t10 -23l33 -33h-43q-12 0 -22.5 -10.5t-10.5 -22.5t10.5 -22.5t22.5 -10.5h66v-66h-99q-12 0 -22.5 -10t-10.5 -22.5t10.5 -22.5t22.5 -10h99v-66q0 -12 10 -22.5t22.5 -10.5t22.5 10.5t10 22.5v66h99
q12 0 22 10t10 22.5t-10 23t-22 10.5z" />
    <glyph glyph-name="uniE649" unicode="&#xe649;" 
d="M725 430q3 19 2.5 37t-1.5 31t-7 30t-8.5 24.5t-12 24t-10.5 18.5t-11 17q-14 22 -17.5 44.5t-1.5 34.5l3 12q-26 -28 -36 -51t-3.5 -42t16.5 -33t27.5 -32.5t25.5 -30.5q13 -21 21.5 -41.5t10.5 -31.5zM754 430q11 23 17 46t5.5 43.5t-2 37t-8 34.5t-10.5 27t-12 24.5
t-9 17.5q-9 19 -11.5 41.5t-0.5 34.5l2 13q-11 -13 -28 -37q-8 -12 -9.5 -26t3.5 -29.5t11.5 -30t17.5 -32.5q18 -29 26.5 -70t7.5 -67v-27zM773 642q17 -29 24 -61.5t5 -58t-6.5 -47t-9.5 -33.5l-6 -12q34 31 46 64t4.5 58.5t-20.5 46.5t-24.5 32t-12.5 11zM831 399h-639
v-112h639v112zM237 365h566v-45h-566v45zM207 377h208v-78h-208v78zM513.5 869q-99.5 0 -190 -39t-156 -104.5t-104 -156t-38.5 -189.5t38.5 -189.5t104 -156t156 -104.5t190 -39t190 39t156 104.5t104 156t38.5 189.5t-38.5 189.5t-104 156t-156 104.5t-190 39zM117 380
q0 144 92 255l556 -556q2 -2 3 -4q-110 -92 -254 -92q-108 0 -199.5 53t-144.5 144.5t-53 199.5zM831 142h-1v2l-555 554q106 79 239 79q107 0 198.5 -53t145 -144.5t53.5 -199.5q0 -132 -80 -238z" />
    <glyph glyph-name="uniE64A" unicode="&#xe64a;" 
d="M828 -64q0 -31 -10.5 -47t-35.5 -16q-26 0 -35.5 16t-9.5 47l-1 361q-1 0 -11 2t-27.5 9.5t-35.5 19.5t-35.5 34.5t-27.5 50.5q1 10 3 27.5t9.5 68t16.5 96t25.5 101t36 95.5t47.5 67.5t60 27.5q18 0 25 -26.5t6 -52.5l-2 -27zM364 423h-19l26 -488q0 -28 -21 -45.5
t-50 -17.5q-28 0 -48 17.5t-20 45.5l27 487l-20 1q-11 0 -49 68.5t-38 85.5l34 317q1 -2 47 -2v-208q0 -16 0.5 -23t6 -13.5t16.5 -6.5t16.5 6.5t6.5 13.5t1 23v208h65v-211q0 -21 5.5 -30t21.5 -9t20 8.5t4 30.5v211h39l33 -315q0 -17 -46.5 -85.5t-57.5 -68.5z" />
    <glyph glyph-name="uniE64B" unicode="&#xe64b;" 
d="M149 -114q-23 0 -41 13t-25 34l-49 139q-9 28 3.5 54t40.5 36l774 268q27 9 53.5 -3.5t36.5 -39.5l48 -140q9 -27 -3.5 -53t-39.5 -36l-775 -268q-12 -4 -23 -4zM875 378q-2 0 -4 -1l-775 -268q-6 -2 -8.5 -7.5t-0.5 -10.5l49 -140q4 -13 18 -9l774 269q6 2 8.5 7t0.5 11
l-48 139q-4 10 -14 10zM337 -52q-13 0 -21 10q-24 27 -40.5 60.5t-24 60.5t-12 55t-4.5 38v18q0 12 8.5 20t19.5 8q12 -1 20 -9t8 -20v-13q0 -8 3.5 -32.5t10 -47t20.5 -51t33 -51.5q7 -8 6.5 -19.5t-9.5 -19.5q-8 -7 -18 -7zM822 281q-20 0 -27 19l-18 52q-4 11 1 21t16 14
t21.5 -1t14.5 -16l18 -52q4 -11 -1 -21.5t-16 -14.5q-5 -1 -9 -1zM874 234q-20 0 -26 19l-18 52q-4 11 1 21.5t16 14t21.5 -1.5t14.5 -16l18 -52q3 -11 -2 -21t-16 -14q-4 -2 -9 -2zM927 188q-20 0 -27 19l-18 52q-3 11 2 21t16 14t21 -1t14 -16l18 -52q4 -11 -1 -21.5
t-16 -14.5q-5 -1 -9 -1zM731 428q-8 0 -16 5q-9 7 -11 18t4 21q19 28 24 48t1.5 26.5t-10.5 14.5q-6 6 -49 17q-67 15 -91 37q-18 16 -26.5 37.5t-7.5 37.5t3 30q3 11 13.5 16.5t21.5 2t16.5 -13.5t2.5 -21q-7 -28 14 -48q14 -12 66 -24q60 -14 78 -33q57 -62 -10 -159
q-8 -12 -23 -12zM848 480q-9 0 -16 5q-10 7 -12 18.5t5 20.5q26 38 33 65.5t2.5 40.5t-17.5 26q-10 11 -70 25q-29 7 -44.5 11t-37.5 14t-36 23q-24 22 -30.5 51t-1.5 50.5t15 38.5q6 10 17 12.5t21 -3t13 -17t-3 -21.5q-4 -6 -7 -14t-1.5 -25.5t14.5 -29.5q20 -18 93 -35
q27 -6 40.5 -10t31 -12.5t27.5 -19.5q73 -77 -13 -202q-8 -12 -23 -12z" />
    <glyph glyph-name="uniE64C" unicode="&#xe64c;" 
d="M998 364q0 -100 -38.5 -190.5t-103.5 -156.5t-155.5 -104.5t-189.5 -38.5t-189 38.5t-155 104.5t-103.5 156.5t-38.5 190.5v56q0 13 7.5 24t19.5 15l167 3v155q-14 0 -25.5 8t-15.5 22q-5 17 4 32t25 20l726 196q17 4 32 -4.5t19 -25.5t-4.5 -32t-25.5 -20l-234 -63v-288
l250 -3q13 -4 20.5 -15t7.5 -24v-56v0zM358 653l-55 -15v-176h55v191zM497 690l-55 -15v-213h55v228zM637 728l-56 -15v-251h56v266zM914 378h-805q0 -2 -0.5 -6.5t-0.5 -7.5v0q0 -110 54 -204t147 -148t202.5 -54t202.5 54t147 148t54 204q0 3 -0.5 7.5t-0.5 6.5z" />
    <glyph glyph-name="uniE64D" unicode="&#xe64d;" 
d="M889 331q0 -41 -19 -65.5t-67 -24.5h-586q-43 0 -65 27t-22 75v390q0 47 19.5 74.5t70.5 27.5h578q52 0 71.5 -23.5t19.5 -70.5v-410zM604 735q0 29 -25 29h-340q-28 0 -28 -31v-163q0 -14 5.5 -21t21.5 -8l336 -1q30 0 30 28v167zM812 430q0 13 -14 13h-103
q-14 0 -14 -13t14 -13h103q14 0 14 13zM811 714q0 20 -17 20h-84q-12 0 -15.5 -6t-3.5 -17v-110q0 -11 3.5 -19t15.5 -8h85q12 0 14 7.5t2 18.5v114zM331 479q-6 0 -10.5 -1.5t-4.5 -8.5v-16q0 -10 11 -10h9h14h15h8q7 0 8.5 3t1.5 7v16q0 4 -1 7.5t-7 2.5h-44zM440 479
q-6 0 -9.5 -0.5t-4.5 -7.5q0 -6 0.5 -11t-0.5 -10q0 -6 3.5 -6.5t7.5 -0.5h49q8 0 8 8v21q0 3 -1 5.5t-8 1.5h-45zM222 479q-6 0 -9.5 -1.5t-3.5 -8.5q-1 -4 -0.5 -8.5t0.5 -8.5q-1 -6 2.5 -8t6.5 -2h46q9 1 9 11v15q0 4 -1 7.5t-7 3.5q-5 -1 -18 -0.5t-25 0.5zM552 479
q-7 0 -10.5 -0.5t-3.5 -7.5q-1 -6 -0.5 -11t0.5 -10q-1 -6 2.5 -6.5t7.5 -0.5h51q8 0 8 8v21q0 3 -1 5.5t-7 1.5h-47zM331 413q-6 0 -10.5 -0.5t-4.5 -8.5v-21q0 -6 11 -6h48q8 0 8 8v21q0 3 -1 5.5t-7 1.5h-44zM440 413q-6 0 -9.5 -0.5t-4.5 -8.5q0 -6 0.5 -11t-0.5 -10
q0 -4 3.5 -5t7.5 -1h49q8 0 8 8v21q0 3 -1 5.5t-8 1.5h-45zM222 413q-6 0 -9.5 -0.5t-3.5 -8.5q-1 -7 -0.5 -12t0.5 -9q-1 -5 2.5 -6t6.5 -1h48q8 0 8 8v20q0 4 -1 6.5t-7 2.5q-5 -1 -18.5 -0.5t-25.5 0.5zM552 413q-6 0 -10 -0.5t-4 -8.5q-1 -6 -0.5 -11t0.5 -10
q-1 -4 2.5 -5t7.5 -1h51q8 0 8 8v21q0 3 -1 5.5t-7 1.5h-47zM331 348q-6 0 -10.5 -0.5t-4.5 -7.5v-22q0 -5 3.5 -5.5t7.5 -0.5h48q8 0 8 7v21q0 4 -1 6t-7 2h-44zM440 348q-6 0 -9.5 -0.5t-4.5 -7.5q0 -7 0.5 -11.5t-0.5 -10.5q0 -5 3.5 -5.5t7.5 -0.5h49q8 0 8 7v21
q0 4 -1 6t-8 2h-45zM222 347q-6 0 -9.5 -0.5t-3.5 -6.5q-1 -7 -0.5 -12t0.5 -11q-1 -4 2.5 -5t6.5 -1h48q7 0 7 8v21q0 3 -1 5.5t-6 1.5h-44zM552 348q-6 0 -10 -0.5t-4 -7.5q-1 -7 -0.5 -11.5t0.5 -10.5q-1 -5 2.5 -5.5t7.5 -0.5h51q8 0 8 7v21q0 4 -1 6t-7 2h-47zM889 -9
q0 -39 -16.5 -57.5t-63.5 -18.5h-590q-39 0 -64 15.5t-25 62.5v119q0 44 17 62.5t65 18.5h589q41 0 64.5 -16t23.5 -61v-125zM810 90q0 18 -9 29t-29 13h-526q-21 1 -30.5 -11.5t-10.5 -33.5v-58q1 -20 7.5 -28.5t29.5 -10.5l533 -1q20 0 27.5 10t7.5 30v61z" />
    <glyph glyph-name="uniE64E" unicode="&#xe64e;" 
d="M1019 491v-62v0q-1 -12 -2 -17v-6v-5q-1 -12 -2 -18q-1 -12 -3 -23q-3 -21 -4 -26q-4 -20 -8 -35q-8 -28 -19 -44q-8 -10 -19 -10q-2 1 -20 1q-3 0 -3.5 0.5t-0.5 3.5v62q0 4 -1 5t-5 1h-842q-4 0 -5 -1t-1 -5v-62q0 -3 -0.5 -3.5t-3.5 -0.5h-23q-5 0 -9 2q-4 4 -9 10
q-7 10 -14 28q-10 31 -15 66q-1 7 -5 44v6v4q-2 20 -2 23q0 1 -0.5 1.5t-0.5 1.5v57v1l1 1v7q0 6 1 9q1 6 2 18t1 14q2 20 3 32q2 9 7 32q6 32 18 53q7 14 19 20h914q10 -7 11 -8q6 -8 11 -17q8 -17 13 -39.5t9 -50.5q1 -5 1.5 -11t1.5 -13.5t1 -10.5q1 -2 1 -6v-5
q1 -6 2 -18v-6zM511 369h422q4 0 12 2q13 3 25 16q9 10 10 24q2 30 -28 43q-11 6 -28 6h-799q-33 0 -41 -1q-15 -3 -28 -13q-8 -7 -12 -19q-4 -10 -2 -20q4 -19 19 -28q14 -10 28 -10h422zM511 246h-403q-4 0 -4.5 0.5t-0.5 3.5v45q0 3 0.5 3.5t3.5 0.5h2h804q5 0 6 -1t1 -6
v-42q0 -3 -0.5 -4t-4.5 -1q-135 1 -404 1zM180 201q-4 -9 -3 -21q1 -7 4 -22q1 -3 2.5 -11.5t2.5 -13.5q2 -9 -2 -20q-8 -20 -27 -29h-1h-1q0 1 1 4.5t2 5.5q6 14 4 26q0 2 -5 26q-2 10 0 23q2 12 9 22q6 8 14 10zM276 201q-5 -9 -4 -23q0 -3 4 -21q5 -29 5 -30
q0 -17 -12 -29q-8 -9 -16 -13q-1 0 -1 -1h-1h-1q0 1 1 4.5t2 5.5q8 19 0 43q-4 16 -1 32q4 20 17 29q1 1 6 3h1zM371 201q-5 -8 -4 -19t3 -23l3 -12l3 -12q2 -18 -9 -34q-6 -8 -18 -16q-1 0 -3 -1h-1q2 9 3 10q3 14 4 16q1 12 -3 25q-6 18 -2 35q3 15 12 24q6 6 12 7z
M845 201q-4 -5 -4 -15q0 -12 4 -28t5 -23q1 -13 -4 -24q-6 -15 -22 -24q0 -1 -6 -3q1 1 2 4.5t2 5.5q7 19 1 37q-5 17 -4 30q2 25 18 37q1 1 2 1.5t2.5 1t2.5 1.5q0 -1 1 -1zM750 201q-5 -9 -4 -23q0 -3 4 -22q5 -26 5 -27q1 -10 -6 -23t-22 -21q-1 0 -2 -1l-1 1q2 8 3 9
q7 18 2 37t-4 29q1 22 13 34q6 6 12 7zM655 201q-5 -9 -4 -23q1 -3 4 -21q5 -26 5 -30q0 -16 -12 -30q-7 -7 -16 -12q-2 -1 -3 -1q2 8 3 9q7 19 2 38t-4 28q1 20 10 31q7 10 15 11zM439 84q5 15 5 16q4 15 1 29q-4 18 -5 27q0 4 2 16q3 17 16 26l7 4q0 -1 -1 -4.5t-2 -5.5
q-2 -12 1 -25q1 -3 3.5 -13t3.5 -15q3 -16 -3 -28q-8 -18 -26 -27h-2zM560 202q-3 -13 -3 -14q0 -12 1 -19q1 -6 3.5 -16.5t2.5 -13.5q5 -23 -9 -40q-8 -9 -18 -14q-1 -1 -2 -1h-1l3 10q6 14 4 28q-1 5 -5 20q-2 13 0 28q3 16 14 26q1 1 2.5 2t3.5 2z" />
    <glyph glyph-name="uniE64F" unicode="&#xe64f;" horiz-adv-x="1707" 
d="M1641 896h-1575q-27 0 -46.5 -23.5t-19.5 -57.5v-823q0 -34 19.5 -62.5t46.5 -28.5h1575q26 0 46 28.5t20 62.5v823q0 34 -19.5 57.5t-46.5 23.5zM1648 64q0 -33 -19.5 -56.5t-46.5 -23.5h-1456q-27 0 -46.5 23.5t-19.5 56.5v671q0 33 19.5 56.5t46.5 23.5h1456
q27 0 46.5 -23.5t19.5 -56.5v-671zM174 163h655v66h-655v-66zM900 163h655v66h-655v-66zM900 371h655v67h-655v-67zM174 371h655v67h-655v-67zM174 582h655v64h-655v-64zM900 582h655v64h-655v-64z" />
    <glyph glyph-name="uniE650" unicode="&#xe650;" 
d="M489 537q28 -15 49 -1q17 12 -9 28q-45 27 -50.5 59.5t29.5 65.5q2 2 16.5 15t21.5 21q36 37 37 63q0 24 -20 52.5t-44 41.5q-21 12 -42 0q-17 -9 -2 -23q4 -4 12 -11.5t13 -11.5q41 -38 7 -78q-18 -20 -50 -49q-47 -43 -38.5 -90t70.5 -82zM730 535q11 -6 24 -5.5
t21 7.5q16 12 -6 25q-101 60 -20 132q34 30 50 50q21 28 20.5 51.5t-15.5 42t-48 44.5q-8 6 -21 5.5t-22 -5.5q-17 -10 -2 -24q4 -3 12.5 -11t12.5 -11q40 -38 8 -76q-15 -19 -49 -50q-42 -38 -43 -80q4 -56 78 -95zM243 543q11 -7 19 -10q23 -10 41 4q15 12 -6 24
q0 1 -4 3.5t-6 3.5q-41 27 -45 58t28 62q42 40 45 42q32 35 32 65q0 17 -10.5 33.5t-22 27t-32.5 26.5q-7 6 -19.5 5.5t-21.5 -5.5q-18 -9 -3 -24q4 -3 8 -7t9 -8.5t8 -6.5q41 -38 7 -78q-17 -21 -49 -49q-46 -41 -40 -86t62 -80zM904 385h-26v10q0 47 -31 79.5t-75 32.5
t-75.5 -32.5t-31.5 -79.5v-10h-49v10q0 47 -31.5 79.5t-75.5 32.5t-75.5 -32.5t-31.5 -79.5v-10h-49v10q0 47 -31.5 79.5t-75.5 32.5t-75 -32.5t-31 -79.5v-10h-25q-31 0 -52.5 -24.5t-21.5 -59t21.5 -58.5t52.5 -24l33 -3v-225q0 -48 27.5 -83.5t70.5 -35.5q58 0 87.5 34
t29.5 85v225h39v-232q0 -46 31.5 -79t75.5 -33t75.5 33t31.5 79v235l38 -1l1 -227q0 -46 36 -82.5t80.5 -36.5t81 36.5t36.5 82.5v225l14 3q31 0 52.5 24t21.5 58.5t-21.5 59t-51.5 24.5zM140 285h-26q-6 0 -10 5t-4 12t4 12t10 5h26v-34zM304 -9q0 -23 -15.5 -40.5
t-42.5 -17.5q-19 0 -29 17.5t-10 40.5v409q0 41 58 41q16 0 27.5 -10.5t11.5 -30.5v-409zM402 278h-39v40l39 1v-41zM558 216h-1v-232q0 -21 -14 -36t-34 -15t-34 15t-14 36v232h-1v164l1 15q0 21 14 36t34 15t34 -15t14 -36l1 -15v-164zM655 278h-39v41l39 -1v-40zM831 -9
q0 -21 -19.5 -39.5t-39.5 -18.5q-24 0 -41 9t-17 29v429q0 20 18 33t40 13t40.5 -13t18.5 -33v-409zM909 278h-20v40h20q6 0 12.5 -6.5t6.5 -13.5t-6.5 -13.5t-12.5 -6.5z" />
    <glyph glyph-name="uniE651" unicode="&#xe651;" 
d="M292 324l149 149l-366 365q-60 -60 -60 -147t60 -148zM648 420q57 -28 135.5 -8t138.5 82q75 74 87.5 167.5t-45.5 150.5q-57 57 -151 45t-168 -86q-62 -62 -82 -139.5t9 -135.5q-51 -52 -178.5 -180t-229.5 -230l-102 -102l74 -73l360 360l361 -360l73 73l-361 358z" />
    <glyph glyph-name="uniE652" unicode="&#xe652;" 
d="M938 573h-852q-14 0 -23.5 -9.5t-9.5 -22.5v-283q0 -13 9.5 -22.5t23.5 -9.5h32v-314q0 -13 10 -22.5t23 -9.5h722q14 0 23.5 9.5t9.5 22.5v314h33q13 0 22.5 9.5t9.5 22.5v283q0 13 -9.5 22.5t-23.5 9.5zM446 -25q0 -13 -9.5 -22.5t-22.5 -9.5h-197q-14 0 -23.5 9.5
t-9.5 22.5v251q0 14 9.5 23t23.5 9h197q13 0 22.5 -9.5t9.5 -22.5v-251zM446 352q0 -13 -9.5 -22t-22.5 -9h-263q-13 0 -23 9t-10 22v126q0 13 10 22.5t23 9.5h263q13 0 22.5 -9.5t9.5 -22.5v-126zM840 -25q0 -13 -9.5 -22.5t-23.5 -9.5h-197q-13 0 -22.5 9.5t-9.5 22.5v251
q0 14 9.5 23t22.5 9h197q14 0 23.5 -9.5t9.5 -22.5v-251zM906 352q0 -13 -10 -22t-23 -9h-263q-13 0 -22.5 9t-9.5 22v126q0 13 9.5 22.5t22.5 9.5h263q14 0 23.5 -9.5t9.5 -22.5v-126zM366 573h302q99 68 107 133q6 53 -45 92q-36 27 -71 27q-92 0 -140 -167
q-12 43 -26.5 79.5t-35 72.5t-49 57t-60.5 21q-40 0 -79 -33q-61 -52 -51 -117q14 -83 148 -165zM659 750q11 0 27 -12q16 -13 15 -24q-2 -19 -36 -48.5t-83 -57.5q14 60 35 101t42 41zM316 797q18 15 32 15q28 0 57 -59t49 -143q-64 33 -111 71t-52 69q-3 23 25 47z" />
    <glyph glyph-name="uniE653" unicode="&#xe653;" 
d="M845 285l136 -73q14 -7 18.5 -22t-2.5 -29q-5 -9 -16 -15l-454 -244q-18 -9 -36 0l-455 244q-13 7 -17.5 22.5t2.5 28.5q6 11 15 15l136 74l-136 72q-13 7 -17.5 22.5t2.5 28.5q6 10 15 16l136 72l-136 73q-13 7 -17.5 22t2.5 29q6 10 15 16l455 243q18 10 36 0l454 -243
q14 -8 18.5 -23t-2.5 -28q-6 -11 -16 -16l-136 -73l136 -73q14 -7 18.5 -22t-2.5 -29q-6 -10 -16 -15l-136 -73v0zM883 179l-118 64l-238 -129q-5 -2 -13 -4h-1h-3h-2h-1h-3h-1q-8 2 -12 4l-239 129l-118 -64l375 -200l374 200v0zM509 191q83 44 374 201l-118 63l-238 -128
q-8 -4 -13 -4v-1h-4h-2h-1h-3l-1 1q-5 0 -12 4l-239 128l-118 -63q20 -11 160.5 -86.5t214.5 -114.5v0zM509 403q61 33 186 100t188 100l-374 201l-375 -201q51 -27 178.5 -95t196.5 -105v0z" />
    <glyph glyph-name="uniE654" unicode="&#xe654;" 
d="M244 881h112v-191h-112v191zM386 584q-12 10 -19.5 28t-8.5 31l-2 13h-112q-3 -50 -30 -72q-19 -15 -30.5 -26.5t-24.5 -34.5t-13 -47v-562q0 -16 10.5 -26.5t26.5 -10.5h235q15 0 25.5 10.5t10.5 26.5v562q1 24 -12.5 47t-25 34.5t-30.5 26.5zM406 51h-211v331h211v-331
zM821 -78h-1h-69q-9 0 -16 7t-7 16v288q71 8 119 61t48 125q0 10 -2 24l-15 213h-337l-19 -206q-2 -17 -2 -31q0 -71 46.5 -123.5t115.5 -62.5v-288q0 -9 -6.5 -16t-16.5 -7h-69h-1q-9 0 -15.5 -6.5t-6.5 -15.5v-2q0 -9 6.5 -15.5t15.5 -6.5h232q9 0 15.5 6.5t6.5 15.5v2
q0 9 -6.5 15.5t-15.5 6.5zM572 427l18 185h235l18 -185h-271z" />
    <glyph glyph-name="uniE655" unicode="&#xe655;" 
d="M704 64h256v-128h-256v128zM64 64h256v-128h-256v128zM448 512l-66 66l-81 -66l147 -128l301 256l-77 64zM896 896h-768q-53 0 -90.5 -37.5t-37.5 -89.5v-450q0 -52 37.5 -89.5t90.5 -37.5h320v-64q-27 0 -45.5 -19t-18.5 -46v-126q0 -27 19 -46t46 -19h126q27 0 46 19
t19 46v126q0 27 -18.5 46t-45.5 19v64h320q53 0 90.5 37.5t37.5 89.5v450q0 52 -37.5 89.5t-90.5 37.5zM896 384q0 -26 -19 -45t-45 -19h-640q-27 0 -45.5 18.5t-18.5 45.5v320q0 26 19 45t45 19h640q27 0 45.5 -18.5t18.5 -45.5v-320z" />
    <glyph glyph-name="uniE656" unicode="&#xe656;" 
d="M890 293h-545l-19 253h-19l-20 -253h-155q-25 0 -42 -17t-17 -41v-194q0 -24 17 -41.5t42 -17.5h758q24 0 41 17.5t17 41.5v194q0 24 -17 41t-41 17zM190 99q-16 0 -27.5 11.5t-11.5 27.5t11.5 27.5t27.5 11.5t27.5 -11.5t11.5 -27.5t-11.5 -27.5t-27.5 -11.5zM306.5 99
q-16.5 0 -27.5 11.5t-11 27.5t11 27.5t27.5 11.5t27.5 -11.5t11 -27.5t-11 -27.5t-27.5 -11.5zM423 99q-16 0 -27.5 11.5t-11.5 27.5t11.5 27.5t27.5 11.5t27.5 -11.5t11.5 -27.5t-11.5 -27.5t-27.5 -11.5zM831 99q-16 0 -27 11.5t-11 27.5t11 27.5t27 11.5t27.5 -11.5
t11.5 -27.5t-11.5 -27.5t-27.5 -11.5zM287 595q0 -12 8.5 -20.5t20.5 -8.5t20.5 8.5t8.5 20.5t-8.5 20.5t-20.5 8.5t-20.5 -8.5t-8.5 -20.5zM176 715q57 64 144 64q86 0 142 -62q16 -5 26 1t4 26q-68 74 -172 74q-101 0 -169 -70q1 -29 25 -33zM365 627q25 -4 29 13
q-11 19 -31 30.5t-43 11.5q-48 0 -73 -39q2 -23 26 -20q14 28 47 28q29 0 45 -24zM417 670q26 -4 26 21q-47 58 -123 58q-75 0 -121 -55q0 -21 23 -25q37 47 98 47q60 0 97 -46z" />
    <glyph glyph-name="uniE657" unicode="&#xe657;" 
d="M946 550q-122 21 -209.5 108.5t-109.5 209.5q59 38 136 25t136 -71.5t72 -136t-25 -135.5zM892 495q-118 33 -202 117t-117 202q-37 -58 -24.5 -135.5t71.5 -136t136 -71.5t136 24zM579 145q-35 0 -67 -9t-63 -29t-49.5 -35t-50.5 -42q-22 -20 -34 -29.5t-32 -24.5
t-35 -21.5t-34 -12.5t-39 -4.5t-41 7.5q-17 13 -18 27q-1 16 13 35.5t29 31.5l4 5q39 -14 68 15l447 368q-59 25 -103.5 69t-68.5 103l-368 -447q-24 -24 -17 -60l-2 -1q-1 -1 -2 -1q-10 -8 -22 -20.5t-28.5 -42.5t-15.5 -58q3 -49 51 -81l8 -4q37 -12 72 -12q31 0 60 8.5
t58 27.5t46.5 32.5t46.5 40.5q29 25 45 37.5t41.5 29.5t50 24.5t50.5 7.5q47 0 95 -19t81 -42.5t65 -54.5t43 -44t18 -23v-1q8 -11 21.5 -13t24.5 6t13.5 21t-5.5 24q-7 11 -20 26.5t-49.5 51t-75 63t-96.5 49t-115 21.5z" />
    <glyph glyph-name="uniE658" unicode="&#xe658;" 
d="M956 69l-64 127q0 81 -39.5 135.5t-86.5 54.5q-28 0 -48.5 -2t-44.5 -7.5t-37 -19.5t-13 -34h-174q0 38 39 94.5t91.5 104.5t106 82.5t80.5 34.5q51 0 95 -28t72.5 -71t48.5 -95.5t28.5 -99.5t8.5 -86v-190h-63zM512.5 576q-52.5 0 -89.5 37t-37 89.5t37 89.5t89.5 37
t89.5 -37t37 -89.5t-37 -89.5t-89.5 -37zM702 259v-190h-348q-10 5 -19 13l-55 -126q-8 -9 -21 -10v-4h-253v127h205l100 177q11 12 29 9q7 4 14 4h348zM132.5 196q-52.5 0 -89.5 37t-37 89.5t37 89.5t89.5 37t89.5 -37t37 -89.5t-37 -89.5t-89.5 -37z" />
    <glyph glyph-name="uniE659" unicode="&#xe659;" horiz-adv-x="1025" 
d="M1024 190.5q0 -51.5 -28 -87.5t-68.5 -36t-68.5 36t-28 87.5t28 88t68.5 36.5t68.5 -36.5t28 -88zM441 771.5q0 51.5 28.5 87.5t68.5 36t68.5 -36t28.5 -87.5t-28.5 -87.5t-68.5 -36t-68.5 36t-28.5 87.5zM334 256l46 287l2 10q2 6 8.5 21t15 26t25 18t36.5 3q2 1 6 1
t16 -3t24 -11t27.5 -28.5t28.5 -49.5l71 -137q4 0 11.5 -1t26 -5.5t33.5 -11.5t27.5 -21t13.5 -33v-5q0 -4 -1.5 -13t-4 -16t-7.5 -12.5t-12 -5.5q-12 0 -47.5 8t-65.5 17l-30 8l-61 117l-36 -156zM742 211l-658 -52q-3 -2 -7 -6.5t-11 -19.5t-7 -33q0 -2 0.5 -6t3 -14
t5.5 -18t8.5 -14t12.5 -6l311 -7h322l86 -163l164 39q1 1 3.5 2.5t9.5 7.5t10 13t5.5 18.5t-3.5 23.5q-7 21 -18.5 29t-19.5 6l-8 -2l-92 -33zM699 -83q0 -6 -4.5 -11.5t-10.5 -5.5h-668q-6 0 -10.5 5t-4.5 12v48q0 6 4.5 10.5t10.5 4.5h668q6 0 10.5 -4.5t4.5 -10.5v-48z
" />
    <glyph glyph-name="uniE65A" unicode="&#xe65a;" 
d="M840 168q-49 -62 -130 -98.5t-176 -36.5q-82 0 -154 27.5t-122 76.5q-13 0 -28.5 2t-46 15t-52.5 35q-30 30 -44.5 64t-14.5 84l1 7q3 29 -6 40q-16 20 -64 19l-1 67h3q78 0 113 -44q27 -33 21 -78q0 -74 38 -111q8 -9 19 -15q-22 47 -22 98q0 58 27.5 110t77.5 92h511
q4 -3 10 -8q79 40 137 22q49 -15 67 -61q14 -37 14 -70t-10.5 -61t-36.5 -58.5t-55.5 -56.5t-75.5 -61zM762 489h-452q-24 -13 -44 -38.5t-28 -43.5l-8 -19q-3 -9 -6.5 -24.5t-1 -57t19.5 -76.5t32 -53.5t47 -40.5q27 -18 56 -31.5t45 -16.5l16 -4q62 1 191 0q39 11 74 30.5
t57.5 39.5t39.5 39t24.5 30.5t7.5 12.5q1 2 2.5 6t5.5 17.5t6 29t0.5 39.5t-8.5 48q-4 19 -14 37t-20 31.5t-19.5 24t-16.5 15.5zM978 464q-13 33 -49 44q-44 14 -107 -15q73 -77 73 -173q0 -43 -16 -85q39 33 62.5 59t37 53.5t13 55.5t-13.5 61zM283 532q26 61 77 104
t115 58q4 21 21 35t38.5 14t38.5 -14t21 -35q64 -15 114.5 -58t76.5 -104h-502zM559 667q0 7 -7 16t-18 9q-9 0 -15.5 -6.5t-8.5 -12.5l-1 -6q-4 0 -11.5 -0.5t-27.5 -6t-38 -15t-39.5 -30.5t-35.5 -50h354q0 8 -20 32q-49 58 -132 70zM559 667z" />
    <glyph glyph-name="uniE65B" unicode="&#xe65b;" horiz-adv-x="1165" 
d="M1093 72l71 -57l-81 -93l-69 55l-61 -74q-17 -20 -38 -27t-39 -2.5t-32 15.5q-39 31 11 91l62 75l-20 15l-86 -104q-23 -27 -47.5 -41.5t-52.5 -13t-54 22t-33.5 47.5t1.5 54t31 54l86 104l-386 308l-87 -104q-34 -41 -74 -51t-82 20q-26 20 -33 47t2 54t31 54l87 104
l-19 15l-60 -72q-56 -67 -95 -36q-22 18 -25.5 50t20.5 66l60 72l-66 52l81 93l64 -51l40 50q17 20 39.5 27.5t42 3.5t33.5 -15q39 -31 -15 -96l-41 -49l19 -15l66 79q22 27 47.5 41.5t54 13t54 -22t33 -47.5t-1.5 -54.5t-31 -54.5l-66 -79l387 -308l65 79q35 42 75 52
t82 -20q26 -20 33 -47t-3 -54t-32 -54l-66 -79l20 -16l45 54q54 65 93 34q22 -18 25.5 -48t-20.5 -63z" />
    <glyph glyph-name="uniE65C" unicode="&#xe65c;" 
d="M957 574q-37 87 -104 154t-154 103q-90 38 -188 38t-188 -38q-87 -37 -154 -103q-67 -68 -103 -154q-39 -90 -38.5 -188.5t38.5 -188.5q36 -87 103 -153q67 -67 154 -104q90 -38 188 -38t188 38q87 37 154 104t103 153q38 90 38.5 188.5t-37.5 188.5zM926 386
q0 -61 -17 -119q-81 77 -108 158q-5 15 -8 28q66 -24 124 -63q4 -2 9 -4zM789 516q2 20 7 39q9 26 24 44.5t31 23.5q52 -74 69 -164q-61 36 -131 57zM812 671q-15 -9 -28 -22q-30 -30 -44 -76q-7 -21 -10 -42q-2 1 -5.5 1.5t-5.5 0.5q-55 11 -115 13q-11 104 -39 178
q-16 45 -39 76q83 -3 157 -37t129 -92zM448 796q36 -25 61 -93q25 -65 35 -157q-33 -2 -64 -5q-50 -4 -101 -14l-6 16q-25 70 -80 109q-33 23 -72 30q96 94 227 114zM172 624q48 6 87.5 -21.5t57.5 -79.5q2 -4 3 -8q-96 -21 -219 -63q15 94 71 172zM96 388q4 0 7 1
q126 44 227 67q2 -73 -42 -147.5t-136 -131.5q-56 97 -56 209v2zM186 128q109 68 159 159t44 181q84 16 160 18q6 -126 -15 -261.5t-72 -251.5q-82 10 -154 50.5t-122 104.5zM526 -29q69 170 81 376q5 71 1 139q65 -2 122 -15q3 -32 14 -65q35 -103 138 -196q2 -2 4 -3
q-50 -103 -146.5 -167.5t-213.5 -68.5z" />
    <glyph glyph-name="uniE65D" unicode="&#xe65d;" horiz-adv-x="1026" 
d="M991 617q-34 84 -98.5 148t-148.5 98q-81 33 -168.5 33t-168.5 -33q-84 -34 -149 -98q-96 -96 -122 -229q-1 -5 -2 -9v-2q-1 -3 -2 -8v-3q-1 -3 -1 -7q0 -2 -1 -4v-6q0 -1 -1 -5v0q-6 -60 4 -119q11 -69 42 -130l-158 -137l-2 -2q-17 -17 -15 -42q3 -21 18 -37l133 -134
q16 -15 37 -18h6q22 0 37 15l1 1l142 161q121 -62 257 -45v0q6 1 11 2h2q2 0 4 0.5t5 0.5q0 1 1 1h2q3 1 8 2h2q5 1 8 2v0q127 28 219 120q64 64 98 148q33 80 33 167.5t-33 168.5v0zM388 118q-2 2 -4 3q-22 13 -41 -5l-6 -6l-2 -2l-143 -162l-118 119l161 140q1 0 1 1l5 4
q9 8 11 20t-5 22q-43 73 -51 159l344 -340q-81 8 -152 47v0zM819 385q-39 0 -67 28t-28 67.5t28 67.5t67.5 28t67.5 -28t28 -67.5t-28 -67.5t-68 -28v0z" />
    <glyph glyph-name="uniE65E" unicode="&#xe65e;" horiz-adv-x="1037" 
d="M612 750l35 -18l-20 -39l-35 18zM130 513l-19 37l33 16l19 -37zM695 25l-35 18l19 38l35 -17zM569 838l-53 -114l-49 101l-465 -242l301 -652l215 100l200 -101l318 669zM64 567l374 192l50 -88l-248 -489zM329 -10l-83 181l229 -116zM701 -6l-401 198l297 584l386 -198z
M799 462q-21 11 -48.5 13.5t-47.5 -4.5q-1 10 -5 20q-11 34 -43 51q-20 11 -45 11q-28 0 -52.5 -13.5t-36.5 -35.5q-14 -26 -14 -62t8 -65.5t22 -62.5t20.5 -45.5t11.5 -20.5l5 -8h14q23 0 49.5 2.5t65 10.5t71 27.5t47.5 47.5q20 33 15 75t-37 59zM793 344
q-12 -23 -40.5 -38.5t-63 -22t-56.5 -9t-41 -2.5q-9 16 -18 35t-17.5 44.5t-13.5 49t-4 47.5t10 40q8 14 25 23.5t36 9.5q17 0 29 -7q21 -12 29 -33q7 -22 -3 -41l28 -16q11 21 46 21q24 0 44 -11t21 -41t-11 -49z" />
    <glyph glyph-name="uniE65F" unicode="&#xe65f;" horiz-adv-x="1036" 
d="M0 386v30q1 0 2 1l2 2q39 36 117 108.5t117 108.5q47 44 134.5 125.5t105.5 98.5q15 14 35 18q1 0 3.5 0.5t3.5 1.5h17q4 -2 6 -2q20 -5 35 -20q42 -40 166 -162q47 -44 138.5 -133.5t138.5 -134.5l7 -7q5 -5 8 -7v-26q0 -2 -0.5 -4.5t-0.5 -4.5q-1 -16 -7 -24
q-22 -33 -55 -32h-60h-5v-7v-334q0 -11 -3 -20q0 -1 -1.5 -5t-2.5 -6q-20 -50 -73 -62q-8 -1 -11 -2h-607h-2h-1q-12 2 -17 3q-39 9 -51 48q-4 14 -4 30v51v297v5h-6h-64q-9 0 -16 3q-15 6 -28 18q-16 14 -19 36q0 2 -1 5zM185 373v-7v-385q0 -7 1 -11q2 -23 23 -28
q7 -1 9 -1q19 -1 55.5 -1.5t54.5 -0.5q28 0 83.5 0.5t83.5 0.5h96h215q20 0 34 15q8 9 14 24q1 2 1 6v82v83v104v115v5h7h108q4 0 6 1q9 2 4 10q0 1 -1 2t-2 1q-66 65 -99 98q-74 73 -118 117q-127 124 -192 185q-22 20 -49 13q-17 -4 -25 -13q-16 -14 -178 -161
q-77 -70 -177 -162q-12 -11 -36 -32.5t-35 -32.5q-7 -6 -7 -12q-1 -6 3 -11q2 -4 9 -4h106h6zM533 554h14q10 -1 15 -11q3 -6 -2 -9q-20 -16 -30 -39q-5 -11 -6 -25q-1 -11 4 -20q3 -6 12 -19q11 -17 16 -25t7 -22q1 -11 -3 -20l-9 -18q-2 -2 -7.5 -10t-7.5 -13
q-7 -10 -10 -18q-6 -14 0 -29q3 -7 10 -19q2 -4 14 -22q2 -3 5.5 -9t4.5 -9q6 -13 2 -28q-5 -12 -11 -21q-2 -4 -6.5 -10.5t-6.5 -9.5q-1 -2 -3.5 -6t-3.5 -5q-10 -15 -6 -37q6 -24 26 -44q7 -7 11 -9q2 -3 1 -5q-2 -11 -13 -13q-17 -5 -34 0q-11 2 -14 14q-1 3 -2 4
q-21 17 -30 37q-7 14 -8 27q-1 9 4 18q6 11 10 18l8 12q6 9 9 14q4 7 7 18q5 14 -2 28q-4 9 -12 20q-2 3 -6.5 10t-6.5 11q-4 7 -8 15q-6 15 0 31q6 13 11 21q4 5 14 20q1 1 8 15q7 15 2 31q-5 12 -11 21q-9 14 -12 19q-1 1 -7 11q-12 18 -5 40t25 40l7 7q5 4 7 10
q4 10 16 12q3 1 13 1zM378 554h4h4h5q11 -1 16 -13q2 -4 -2 -7q-16 -12 -28 -33q-8 -13 -9 -31q0 -11 3 -18q2 -3 5.5 -8.5t5.5 -8.5q1 -3 6.5 -11t8.5 -13q7 -10 9 -21q5 -13 -2 -26q-4 -10 -10 -19q-3 -4 -8 -12t-7 -11q-5 -8 -8 -16q-6 -12 -1 -29q3 -7 11 -21
q9 -14 14 -21q1 -2 9 -17q7 -15 1 -29q-4 -10 -8 -16q-2 -4 -6.5 -10.5t-6.5 -9.5q-1 -3 -4.5 -8t-5.5 -8q-10 -16 -6 -35q6 -22 21 -39q5 -5 16 -15q3 -3 2 -6q-3 -12 -18 -13q-12 -1 -23 0q-15 1 -19 15q-1 4 -3 5q-15 13 -25 27q-10 17 -12 36q-1 10 2 17q1 2 12 20
q3 4 8 11l7 11q7 11 10 24q3 14 -2 24q-4 9 -10 18q-5 9 -14 20q-5 9 -9 16q-9 19 0 38q5 9 12 20q2 3 5.5 8t4.5 7t3.5 6t3.5 5q13 22 2 45q-4 7 -15 24q-9 15 -14 23q-7 11 -6 20q0 13 7 29q10 21 30 37q3 2 5 6q2 13 15 14q11 -1 14 -1zM695 554h13q11 -1 16 -11
q2 -5 -2 -9q-23 -19 -32 -42q-5 -13 -5 -23q-1 -8 4 -16q8 -16 11 -20q2 -4 7.5 -11.5t7.5 -11.5q5 -10 8 -19q5 -14 -1 -28q-6 -10 -11 -19q-2 -4 -6.5 -10.5t-6.5 -9.5q-8 -14 -10 -19q-5 -12 0 -26q7 -15 9 -19q2 -3 6.5 -10t6.5 -10q8 -12 11 -20q7 -16 1 -31
q-4 -12 -10 -20q-1 -3 -3.5 -6t-5 -7t-3.5 -6t-3.5 -5.5t-3.5 -5.5q-12 -17 -6 -39q6 -23 22 -40q5 -4 14 -13q3 -3 2 -7q-3 -12 -18 -13h-23q-15 1 -19 16q0 1 -3 4q-16 13 -26 31q-10 17 -11 35q0 11 3 18q6 11 11 17q1 3 6.5 11t8.5 13q8 13 10 25q2 8 -2 19q-3 8 -11 21
q-2 3 -7.5 11t-7.5 13q-6 8 -9 16q-6 15 0 29q6 13 9 18q2 3 7.5 11t8.5 12q3 6 9 17q7 14 1 30q-6 14 -10 20q-9 15 -15 22q-2 3 -7 12q-9 15 -4 34q5 22 19 37q5 6 17 17q2 2 3 4q2 12 16 15q1 0 6 -0.5t8 -0.5z" />
    <glyph glyph-name="uniE660" unicode="&#xe660;" horiz-adv-x="1281" 
d="M1169 684q-41 -66 -189.5 -108.5t-345.5 -42.5t-345 42.5t-190 108.5q0 -1 -10.5 -5.5t-25 -12.5t-29 -18t-24.5 -23.5t-10 -26.5q1 -14 11 -26t32 -22t40 -16t49 -16q32 -81 88 -151t127 -110l-141 -331q-6 -15 0 -29.5t20 -21.5q8 -3 15 -3q26 0 36 24l139 328
q104 -41 218 -41q117 0 224 43l140 -330q10 -24 36 -24q8 0 15 3q14 7 20 21.5t0 29.5l-142 334q68 39 122 107.5t86 147.5q33 9 51.5 14.5t39 14.5t29.5 21t10 27q0 10 -5 20.5t-13.5 19t-18.5 17t-20.5 14.5t-19 10.5t-14.5 7.5zM82 649q5 -29 12 -51.5t12 -30.5l5 -8
q-29 6 -46 14t-21.5 16t-2.5 17t8 16t14.5 14t12.5 9.5t6 3.5v0zM1163 557q18 24 29 90q2 -2 6 -4t12.5 -9.5t14.5 -14t8 -16t-3 -17.5t-22 -16t-45 -13zM634 559q114 0 213.5 15t166.5 39t105.5 54t38.5 60.5t-38.5 60.5t-105.5 54t-166.5 39t-213 15t-213.5 -15
t-166.5 -39t-105 -54t-38.5 -60.5t38.5 -60.5t105 -54t166.5 -39t213 -15zM613 618q-52 1 -99 4l210 227q53 -3 104 -8zM920 827q14 -3 45 -14t45 -11h-9l-171 -176q-51 -5 -102 -8zM411 633q-57 8 -101 19l204 194q50 4 107 4zM943 645l122 133q30 -21 30 -44
q0 -56 -152 -89zM387 832l-164 -146q-35 22 -35 48q0 33 54 58t145 40z" />
    <glyph glyph-name="uniE661" unicode="&#xe661;" 
d="M76 446q11 0 20 3l1 -3l332 208q57 41 83 41q12 0 32.5 -10.5t35.5 -20.5l15 -10l332 -208l1 3q9 -3 20 -3q25 0 43.5 18.5t18.5 43.5q0 21 -12 37t-31 22l1 4l-332 207q-7 5 -19 12t-45 18.5t-60 11.5q-29 0 -60 -10.5t-48 -20.5l-16 -11l-332 -207l1 -3q-19 -7 -31 -23
t-12 -37q0 -25 18.5 -43.5t43.5 -18.5zM839.5 238q-65.5 0 -115.5 36.5t-50 90.5q0 -54 -49.5 -90.5t-115 -36.5t-115.5 36.5t-50 90.5q0 -54 -49.5 -90.5t-115 -36.5t-115.5 36.5t-50 90.5v-146q3 -3 7.5 -7t20.5 -15t33.5 -19.5t46 -15t57.5 -6.5q37 0 67.5 6.5t47.5 15.5
t29.5 18.5t16.5 15.5l4 7q2 -3 5 -7t15.5 -15t29.5 -19.5t47.5 -15t67.5 -6.5t67.5 6.5t48 15.5t29.5 18.5t16 15.5l4 7l7 -7q4 -4 18.5 -15t32 -19.5t46.5 -15t62 -6.5q34 0 64 6.5t47.5 15.5t30.5 18.5t18 15.5l5 7v146q0 -54 -50 -90.5t-115.5 -36.5zM839.5 31
q-65.5 0 -115.5 36.5t-50 89.5q0 -53 -49.5 -89.5t-115 -36.5t-115.5 36.5t-50 89.5q0 -53 -49.5 -89.5t-115 -36.5t-115.5 36.5t-50 89.5v-145l8 -8q4 -4 20 -14.5t33.5 -19t46 -15.5t57.5 -7q37 0 67.5 6.5t47.5 16t29.5 18.5t16.5 16l4 7l5 -8q3 -4 15.5 -14.5t29.5 -19
t47.5 -15.5t67.5 -7t67.5 6.5t48 16t29.5 18.5t16 16l4 7q3 -3 7 -7.5t18.5 -15t32 -19t46.5 -15.5t62 -7q34 0 64 6.5t47.5 16t30.5 18.5t18 16l5 7v145q0 -53 -50 -89.5t-115.5 -36.5z" />
    <glyph glyph-name="uniE662" unicode="&#xe662;" 
d="M973 124q-2 3 -6.5 8t-19 17.5t-30 22t-40 17t-48.5 7.5q-18 0 -44 -18t-54 -36t-52 -18q-27 0 -85.5 36t-88.5 36q-32 0 -92.5 -36t-89.5 -36q-22 0 -50 18t-53.5 36t-42.5 18q-24 0 -47 -7t-39.5 -18t-29 -21.5t-19.5 -17.5l-6 -8q-15 0 -25.5 -10.5t-10.5 -25.5
t10.5 -25.5t25.5 -10.5q2 3 6.5 8t18.5 17.5t29.5 22t39 17t47.5 7.5q17 0 42.5 -18t53.5 -36t50 -18q28 0 88.5 36t92 36t92 -36t88.5 -36q22 0 49 18t52.5 36t42.5 18q25 0 48.5 -7t40.5 -18t30 -21.5t20 -17.5l6 -8q15 0 26 10.5t11 25.5t-11 25.5t-26 10.5zM973 -56
q-2 3 -6.5 8t-19 17.5t-30 22t-40 17t-48.5 7.5q-18 0 -44 -18t-54 -36t-52 -18q-27 0 -85.5 36t-88.5 36q-32 0 -92.5 -36t-89.5 -36q-22 0 -50 18t-53.5 36t-42.5 18q-24 0 -47 -7.5t-39.5 -18t-29 -21t-19.5 -17.5l-6 -8q-15 0 -25.5 -10.5t-10.5 -25.5t10.5 -25.5
t25.5 -10.5q2 3 6.5 8t18.5 17.5t29.5 22t39 17t47.5 7.5q17 0 42.5 -18t53.5 -36t50 -18q28 0 88.5 36t92 36t92 -36t88.5 -36q22 0 49 18t52.5 36t42.5 18q25 0 48.5 -7.5t40.5 -18t30 -21t20 -18.5l6 -7q15 0 26 10.5t11 25.5t-11 25.5t-26 10.5zM36 232q2 3 6.5 8
t18.5 17.5t29.5 22t39 17.5t47.5 8q17 0 42.5 -18t53.5 -36.5t50 -18.5q28 0 88.5 36.5t92 36.5t92 -36.5t88.5 -36.5q22 0 49 18.5t52.5 36.5t42.5 18q25 0 48.5 -7.5t40.5 -18t30 -21.5t20 -18l6 -8q15 0 26 11t11 25.5t-11 25.5t-26 11q-2 3 -6.5 7.5t-19 17t-30 22
t-40 17.5t-48.5 8q-14 0 -31.5 -10t-40 -26.5t-36.5 -23.5v420q0 30 21 51t51 21t51 -21t21 -51v-108h72v108q0 60 -42 102t-102 42t-102 -42t-42 -102v-36h-289v36q0 30 21.5 51t51.5 21h108v72h-108q-60 0 -102.5 -42t-42.5 -102v-36v-72v-108v-72v-135q-12 6 -52 34.5
t-59 28.5q-24 0 -47 -7.5t-39.5 -18t-29 -21t-19.5 -18.5l-6 -7q-15 0 -25.5 -11t-10.5 -25.5t10.5 -25.5t25.5 -11zM360 629h289v-108h-289v108zM649 449v-138q-12 5 -64 35.5t-80 30.5q-22 0 -46.5 -11.5t-53 -28.5t-45.5 -24v136h289z" />
    <glyph glyph-name="uniE663" unicode="&#xe663;" 
d="M933 379h-243q-39 -64 -103 -112l346 56v56zM455 -105h53l64 361q-58 -40 -119 -58zM397.5 674q28.5 0 49 20t20.5 49t-20.5 49.5t-49 20.5t-49 -20.5t-20.5 -49.5t20.5 -49t49 -20zM568.5 271.5q46.5 33.5 79.5 74.5t48.5 74.5t23 69.5t8 53t-0.5 30l-167 -120
q-23 24 -36 59.5t-9 62.5l149 266l-45 32l-171 -229l-356 -1l-1 -53l247 -32q6 -129 64 -218l-171 -122q13 -5 29.5 -10t52.5 -9t73 -0.5t86.5 21.5t96 51.5z" />
    <glyph glyph-name="uniE664" unicode="&#xe664;" 
d="M472 620q-51 15 -86 -2.5t-47 -57.5q-7 -23 -0.5 -46t29.5 -41q-34 -5 -55.5 -24.5t-29.5 -48.5q-15 -52 14 -93q25 -35 73 -49q52 -15 92 6.5t54 70.5q9 30 0.5 57t-34.5 48q26 3 44 18.5t26 39.5q11 40 -9.5 74t-70.5 48zM450 358q-8 -29 -26.5 -40t-39.5 -5t-31 26
t-1 48q5 20 22.5 33.5t42.5 6.5q21 -6 30.5 -25t2.5 -44zM487 512q-6 -20 -21 -28t-35 -2q-19 5 -27 19.5t-2 35.5q6 19 20.5 27t34.5 2q19 -5 27 -20t3 -34zM983 584q-38 92 -109 162.5t-163 109.5q-95 40 -199 40t-199 -40q-92 -39 -163 -109.5t-110 -162.5
q-40 -95 -40 -199t40 -199q39 -92 110 -163t163 -109q95 -41 199 -41t199 41q92 38 163 109t109 163q41 95 41 199t-41 199zM506 836q41 7 83 -8q10 -3 14.5 -13t0.5 -20q-6 -17 -24 -17q-4 0 -9 2q-29 10 -57 6q-11 -2 -19.5 4t-10 17t4.5 19.5t17 9.5zM446 123
q-124 0 -211.5 87t-87.5 210.5t87.5 211t211 87.5t211 -87.5t87.5 -211t-87.5 -210.5t-210.5 -87zM940 414h-5q-9 0 -16 6t-9 15q-25 147 -139 244q-57 49 -110 68q-10 4 -14.5 13.5t-0.5 19.5t13.5 14.5t19.5 1.5q60 -22 124 -76q56 -48 94 -109q48 -76 64 -167
q1 -11 -5 -19.5t-16 -10.5z" />
    <glyph glyph-name="uniE665" unicode="&#xe665;" 
d="M512 896q-139 0 -257 -68.5t-186.5 -186.5t-68.5 -257t68.5 -257t186.5 -186.5t257 -68.5t257 68.5t186.5 186.5t68.5 257t-68.5 257t-186.5 186.5t-257 68.5zM712 671q4 11 12.5 16.5t17.5 2.5l4 -2q8 -12 2 -28q-4 -11 -13 -16t-17 -2l-4 2q-8 12 -2 27zM675 715
q6 0 10 -4q9 -11 7 -26q-2 -13 -10 -21t-19 -7q-5 1 -10 4q-8 11 -6 26q2 13 10 21.5t18 6.5zM579 716q14 4 26 -7q7 -8 9 -18q5 -15 -1 -28.5t-18 -16.5q-13 -4 -25 7q-7 7 -10 18q-4 15 1.5 28.5t17.5 16.5zM333 487q10 14 24 14q12 0 21 -11.5t9 -27.5q0 -11 -5 -20
q-9 -13 -23 -13q-12 0 -21 11.5t-9 27.5q0 10 4 19zM255 468q4 5 9 7q9 4 19.5 -2t14.5 -18q6 -14 1 -27q-3 -4 -9 -6q-9 -4 -19 1.5t-15 17.5q-6 15 -1 27zM203 430q2 1 3 3q11 8 25 -1q5 -4 9 -9q10 -14 5 -27q-1 -2 -3 -3q-5 -4 -11 -4q-14 0 -23 14q-10 13 -5 27z
M210 348l-1 -1q-5 -6 -14.5 -5.5t-17.5 7.5q-14 13 -9 27v1q6 6 15.5 5.5t17.5 -7.5q14 -13 9 -27zM467 59q-9 -14 -28 -20q-46 -17 -95 18q-36 27 -66.5 67.5t-46.5 84.5q-31 84 -1 141l1 1q22 35 68 50q33 12 72 1t57 -39q8 -14 9.5 -27.5t-3 -26t-10.5 -23t-13.5 -24.5
t-10.5 -25q-7 -23 4.5 -46.5t34.5 -52.5q2 -1 6.5 -7t7.5 -9q28 -34 14 -63zM480 419q0 -1 -1 -1q-16 -25 -40 -24q-6 0 -12 3q-15 7 -19 25t5 36q0 1 1 2q10 15 25 21t28 -1q14 -7 18 -25t-5 -36zM482 604q-1 0 -1 1q-13 15 -14 33.5t11 29.5q11 9 27 7.5t29 -14.5
q1 0 1 -1q7 -8 11 -18q7 -18 0 -34q-3 -6 -8 -11q-11 -9 -27 -7t-29 14zM767 418q-19 -74 -62 -127q-27 -33 -64 -41t-56 11q-20 24 -2 64q1 2 5.5 12t6 13.5t5.5 12.5t5 13.5t4 12.5t3.5 13t1 12.5t-0.5 13t-3 11.5t-5 11q-7 12 -30 35.5t-29 39.5q-7 18 0 39v1
q10 32 44 52t71 18q49 -3 79 -32q18 -18 27 -45q20 -59 0 -140zM792 617q-10 -16 -25 -13q-4 1 -6 3h-1q-8 12 2 28q2 3 5 6q14 13 26 5v-1q9 -12 -1 -28z" />
    <glyph glyph-name="uniE666" unicode="&#xe666;" 
d="M847 -108v758h41v-758h-41zM557 502l-38 -159l252 -451h-116l-177 308l-61 -308h-123q118 632 127 689q6 32 19.5 45.5t39.5 13.5h39q10 0 18.5 -4t12.5 -7.5t13.5 -14t13.5 -14.5l58 -59l171 48v-82q-141 -55 -171 -64q-8 -3 -27.5 12t-34.5 31zM557.5 679
q-40.5 0 -69 29t-28.5 69.5t28.5 69.5t69 29t69 -29t28.5 -69.5t-28.5 -69.5t-69 -29zM390 638q-7 -35 -25.5 -136t-22.5 -122q-7 -37 -43 -37h-129q-40 0 -32 37q7 36 20.5 104t23.5 117l9 49q1 3 3.5 6t12.5 9t25 6h128q15 0 24.5 -8t5.5 -25z" />
    <glyph glyph-name="uniE667" unicode="&#xe667;" horiz-adv-x="1025" 
d="M513 46q-37 0 -61 4q-95 8 -180 43q-82 33 -124 81q-68 83 -4 161q2 4 5.5 7.5t7.5 6.5t6 5q14 14 0 28q-12 12 -29 0l-14 -9q-53 -35 -76 -76q-66 -95 0 -190q14 -24 52 -61q77 -64 185 -95q150 -43 308 -29q115 7 228 53q100 41 156 104q50 52 51.5 116t-41.5 116
q-24 29 -81 76q-4 5 -9 5q-10 0 -19 -10q-2 -2 -2.5 -4.5t0.5 -5t1.5 -4t2.5 -5t2 -4.5q5 -7 17 -19t17 -19q17 -29 17 -59.5t-17 -59.5q-19 -28 -34 -38q-35 -36 -104 -61q-94 -57 -261 -57zM348 736l-2 2l-5 5q-6 6 -11.5 0t-18.5 -15t-19 -15q-39 -34 -67 -78
q-24 -49 -7 -94q11 -26 41 -71q5 -9 18 -28t19 -28q14 -24 8 -57q-5 -33 -30 -71q-4 -6 -4 -11q0 -13 4 -19q2 -3 7 -7q14 -3 18.5 -1.5t15.5 12.5l4 4q2 3 12.5 14.5t14.5 16.5t11 14.5t12 18.5l10 18q11 24 7 45q-6 36 -22 64q-12 14 -45 56q-4 4 -11.5 13t-11.5 14
t-9.5 13t-9.5 16q-13 27 -3 56q11 40 33 68q8 7 21 22t20 23zM572 844q-13 16 -16.5 17t-13.5 -11q-57 -59 -101 -132q-47 -85 -9 -175q7 -22 26.5 -60.5t24.5 -49.5q12 -21 29 -66q15 -38 9 -71q-6 -55 -34 -109l-4 -11q0 -22 8 -33q5 -6 17 -6h4q6 0 13 6q4 3 7 7t6 8.5
t4 6.5q3 4 18 26t20 30.5t14.5 25.5t15.5 33q14 36 8 65q-7 46 -17 71q-4 14 -11.5 28.5t-11.5 22t-16.5 26t-15.5 22.5q-33 55 -46 82q-16 35 -9 83q13 58 43 104q4 16 38 60zM753 760q-4 -4 -12 -9.5t-12 -9.5q-54 -48 -83 -91q-43 -62 -8 -126q8 -14 24 -40l24 -39
q4 -8 13.5 -24t13.5 -24q8 -11 8 -43q-5 -40 -31 -87q0 -2 -2 -6t-2 -6q0 -15 3.5 -19t19.5 -4q8 0 12 4q24 23 32 35q32 33 47 67q13 32 8 56q-4 19 -20 51q-5 9 -13.5 20t-14.5 18.5t-17.5 20.5t-17.5 20q-24 32 -31 47q-15 20 -8 55q12 42 39 75q6 9 21 26t23 26
q-4 1 -8.5 3.5t-7.5 3.5z" />
    <glyph glyph-name="uniE668" unicode="&#xe668;" 
d="M957 574q-37 87 -104 154t-154 103q-90 38 -188 38t-188 -38q-87 -37 -154 -103q-67 -68 -103 -154q-39 -90 -38.5 -188.5t38.5 -188.5q36 -87 103 -153q67 -67 154 -104q90 -38 188 -38t188 38q87 37 154 104t103 153q38 90 38.5 188.5t-37.5 188.5zM926 386v-1
q-39 8 -78 18q9 114 -43 258q-5 13 -10 27q61 -58 96 -136.5t35 -165.5zM894 226q-90 -24 -295 58q-86 35 -176 82q42 48 82 90q207 -84 417 -126q-7 -54 -28 -104zM173 144q-32 46 -51 98q70 181 202 297q49 43 98 71q26 -58 45 -114q-203 -214 -294 -352zM520 800
q31 -48 65 -146q39 -112 46 -186q-63 22 -110 42q-47 140 -125 274q56 17 115 17q6 0 9 -1zM704 753q11 -20 23 -47t30 -76t28.5 -106t7.5 -107q-51 14 -106 32q-1 83 -50 223q-24 70 -50 122q62 -12 117 -41zM343 765q29 -49 56 -105q-55 -30 -109 -77q-65 -57 -117 -130
q-41 -57 -73 -123q-4 28 -4 56q0 125 68 227.5t179 151.5zM210 100q18 29 44 64q55 -51 133 -90q80 -42 167 -60q55 -11 112 -13q-74 -31 -155 -31q-87 0 -165 34.5t-136 95.5zM768 60q-188 -23 -354 62q-74 37 -126 86q42 53 97 116q95 -51 193 -91q168 -68 271 -68
q7 0 14 1q-38 -61 -95 -106z" />
    <glyph glyph-name="uniE669" unicode="&#xe669;" 
d="M155 199l131 524q110 15 201 -4q108 -23 171.5 -77t89.5 -151l2 -10q1 -5 2 -14v-125h118h119v125q1 42 -4.5 75t-16 52.5t-23.5 33t-26 19t-24 8t-18 1.5h-7q-1 -1 -7 0.5t-17.5 -2t-24 -8.5t-26 -19t-23.5 -34q-42 61 -108 106q-30 20 -69 36t-90 26.5t-114 8
t-129 -19.5l-132 -551h17h8zM843 683q37 0 63.5 26t26.5 63.5t-26.5 63.5t-63.5 26t-63 -26t-26 -63.5t26 -63.5t63 -26zM35 -94v320q63 -111 140 -24q3 4 7.5 10.5t20 18t30.5 15.5t36.5 -5t41.5 -36q64 -87 129 -6q2 5 7 11t20.5 19t30.5 18t36.5 -3t40.5 -33
q66 -89 127 -17q3 4 8.5 11t21.5 20t31.5 18.5t38 -1.5t42.5 -32q75 -94 142 22v-326h-951z" />
    <glyph glyph-name="uniE66A" unicode="&#xe66a;" 
d="M502 742l-14 5l-133 36q-38 10 -48 -28l-159 -660q-10 -38 28 -49l133 -35q39 -11 49 28l159 660q8 30 -15 43v0zM437 512q-2 -9 -9 -15q-7 -5 -13 -4h-1l-121 33q-7 2 -10 10q-2 4 -2 8.5t1 8.5q2 10 10 15q6 6 13 4l121 -33h1l1 -1h1q5 -3 7 -9q2 -4 2.5 -8t-1.5 -9z
M458 592q-1 -4 -1 -5q-1 -6 -6 -11q-3 -4 -4 -4q-1 -1 -3 -2q-5 -3 -9 -2h-1l-121 32q-7 3 -10 11q-2 5 -2 12q1 4 1 5t2 5q3 7 8 10q7 6 14 3l121 -32q4 -1 7 -6q2 -2 2 -4q2 -4 2 -8v-2v-2zM683 718q-4 -9 -4 -21v-684q0 -13 4 -21q4 -9 11 -9q6 0 10 9t4 21v684
q0 12 -4 21t-10 9q-7 0 -11 -9zM666 697q0 12 -4 21q-5 9 -11 9t-10 -9t-4 -21v-684q0 -12 4 -21t10 -9t11 9q4 8 4 21v684zM853 718q-4 -9 -4 -21v-684q0 -13 4 -21q4 -9 10 -9t11 9q4 9 4 21v684q0 12 -4 21q-5 9 -11 9t-10 -9v0zM836 697q0 12 -4 21q-5 9 -11 9t-10 -9
q-5 -9 -5 -21v-684q0 -12 5 -21q4 -9 10 -9t11 9q4 8 4 21v684zM603 723q-9 9 -21 9t-21 -9q-9 -8 -9 -21v-689q0 -12 9 -21t21 -9t21 9q8 9 8 21v689q0 13 -8 21v0zM737 723q-9 -9 -9 -21v-689q0 -12 9 -21t21 -9t21 9t9 21v689q0 13 -9 21q-9 9 -21 9t-21 -9v0zM737 723z
" />
    <glyph glyph-name="uniE66B" unicode="&#xe66b;" 
d="M826 698q-63 63 -144.5 96.5t-170.5 33.5t-170 -33.5t-144 -96.5t-96.5 -144.5t-33.5 -170.5t33.5 -170t96.5 -144t144 -96.5t170 -33.5t170 33.5t144.5 96.5t97 144t33.5 170t-33.5 170.5t-96.5 144.5zM511 -1q-77 0 -147 29t-124.5 83.5t-83.5 124.5t-29 147t29 147.5
t83.5 125t124.5 83.5t147 29t147.5 -29t125 -83.5t83.5 -125t29 -147.5t-29 -147t-83.5 -124.5t-125 -83.5t-147.5 -29zM480 553q-45 21 -92 21q-41 0 -79 -17q-82 -38 -110 -131q-27 -93 16 -187t130 -135q45 -21 91 -21q42 0 80 18q82 37 110 130q27 93 -16 187t-130 135z
M571 254q-20 -70 -81 -97q-60 -27 -126 3q-66 31 -98.5 102t-11.5 142q20 69 80 96q28 13 59 13q34 0 67 -16q66 -30 98.5 -101.5t12.5 -141.5zM450 361q20 45 -4 82q-18 28 -50 32t-63 -15q-33 -22 -44 -54q-10 -33 9 -63q22 -35 69 -35q-27 -50 1 -93q19 -31 54 -37
q7 -1 13 -1q28 0 56 18q40 26 52 60q11 35 -10 68q-27 44 -83 38zM422 310q49 10 66 -18q8 -12 4 -27q-5 -15 -21 -26q-18 -11 -34 -9t-24 15q-17 27 9 65zM378 425q2 0 5 -1q12 -2 19 -14q15 -22 -6 -55q-38 -5 -53 18q-7 11 -3 23q4 14 17 22q11 7 21 7z" />
    <glyph glyph-name="uniE66C" unicode="&#xe66c;" 
d="M237 372q21 2 41 -5q-1 21 6 38q-22 -1 -40 6q1 -19 -7 -39zM738 511l8 89l-79 -40q-8 -5 -17 -1l-82 36l14 -88q1 -10 -5 -17l-59 -67l88 -14q9 -2 14 -10l45 -77l41 80q4 8 13 10l87 19l-62 64q-7 7 -6 16zM512 896q-139 0 -257 -68.5t-186.5 -186.5t-68.5 -257
t68.5 -257t186.5 -186.5t257 -68.5t257 68.5t186.5 186.5t68.5 257t-68.5 257t-186.5 186.5t-257 68.5zM337 423q-22 -15 -26.5 -41.5t11.5 -47.5q4 -6 3 -12.5t-7 -10.5q-13 -9 -23 4q-16 21 -43 25t-49 -12q-13 -9 -23 4q-4 5 -3 11.5t7 10.5q22 16 26.5 42t-11.5 48
q-4 5 -3 11.5t7 10.5t12.5 3t10.5 -6q16 -22 43 -26t49 12q6 4 12.5 3t10.5 -6t3 -12t-7 -11zM863.5 413.5q-3.5 -11.5 -14.5 -13.5l-112 -25l-53 -103q-4 -9 -14 -11h-3q-12 0 -18 10l-50 85q-1 -4 -2 -5l-203 -297q-5 -7 -13 -8.5t-15 3.5t-8.5 13t3.5 15l203 296l2 1v1
l-90 15q-12 2 -16 13t4 20l77 87l-18 115q-1 11 8 18.5t20 2.5l106 -46l104 52q10 5 20 -1.5t9 -18.5l-12 -116l81 -83q8 -8 4.5 -19.5z" />
    <glyph glyph-name="uniE66D" unicode="&#xe66d;" horiz-adv-x="1026" 
d="M826 570q-56 10 -88 5.5t-60.5 -19t-48 -30t-50 -28t-66.5 -12.5t-67 13t-50 29.5t-47.5 31t-60.5 18.5t-89 -8q-84 -21 -143 -179t-57.5 -306.5t66.5 -148.5q36 0 75.5 17t76.5 41.5t78.5 49t98.5 41.5t119 17t118.5 -17t98 -41.5t79 -49t76.5 -41.5t76 -17
q64 0 65.5 148.5t-57.5 306.5t-143 179zM385 237h-83v-83h-90v83h-83v83h83v83h83v-83h90v-83zM769 173q-45 0 -77 31t-32 78q0 46 32 74t77 28q44 0 76.5 -31t32.5 -78q0 -46 -32 -74t-77 -28zM513 550q19 0 57 13q-12 26 -12 58v45q0 33 24.5 58t58.5 25h173v83h-192
q-63 0 -108.5 -45.5t-45.5 -108.5v-57q0 -32 -13 -58q19 -13 58 -13z" />
    <glyph glyph-name="uniE66E" unicode="&#xe66e;" 
d="M511 -113q-101 0 -194 39q-90 38 -159 107t-107 158q-39 93 -39 194.5t39 194.5q38 89 107 158t159 107q93 40 194 40t194 -40q90 -38 159 -107t107 -158q39 -93 39 -194.5t-39 -194.5q-38 -89 -107 -158t-159 -107q-92 -39 -194 -39zM511 814q-116 0 -214.5 -57.5
t-156 -156t-57.5 -215t57.5 -215t156 -156t214.5 -57.5t214.5 57.5t156 156t57.5 215t-57.5 215t-156 156t-214.5 57.5zM295 329l-77 85l86 163l161 -36l-15 -126zM291 308l-93 103l96 186l190 -43l-18 -150zM239 416l59 -65l136 74l12 102l-133 31zM707 104l-111 31
l-11 145l149 60l88 -110zM712 84l-132 38l-13 169l173 69l104 -131zM612 148l89 -25l98 107l-70 89l-126 -50zM894 649l-107 -48l-123 73l21 130zM786 582l-141 83l23 142l34 -5l-19 -119l105 -63l99 44l14 -31zM174 71l71 53l132 -82l-9 -92zM386 -51l-34 3l8 81l-114 70
l-61 -46l-21 27l80 61l152 -94zM366 843l-7 -61l-57 -82l-86 15zM310 681l-97 17l6 34l75 -13l48 69l7 57l34 -4l-7 -65z" />
    <glyph glyph-name="uniE66F" unicode="&#xe66f;" 
d="M519 242q-95 -9 -161 45q-79 66 -75.5 185t87.5 221q47 57 108.5 92t126.5 41q96 9 161 -46q65 -53 75 -146q37 -6 70 -21q-3 140 -100 220q-88 73 -212 61q-77 -7 -151 -47.5t-131 -109.5q-50 -61 -74 -125.5t-30 -148.5q0 -7 -2.5 -41t-3.5 -46.5t-4 -44t-6 -47.5
t-8.5 -42.5t-12 -43t-16 -35t-20.5 -32.5l-135 -163q-6 -7 -5 -16t8 -14l73 -61q7 -6 16 -5t14 8q51 61 132 159q14 18 35.5 34.5t44 28.5t49.5 23t49 18.5t47 14t40 10t30 6.5l15 3q1 0 4 1t5 1q-22 30 -37 63h-6zM241 129l-15 13q25 55 38 131q23 -26 46 -45
q23 -18 52 -37q-72 -26 -121 -62zM989 477q-36 57 -95 86t-126 23h-1h-1l35 -30q74 -61 79 -65q44 -36 58.5 -88.5t-4.5 -102.5q-10 -24 -26.5 -44.5t-38.5 -33.5q-30 -19 -66 -22q-71 -7 -129 41q-5 4 -75 63l-42 34q4 -58 35 -108q35 -57 94.5 -86.5t125.5 -22.5
q55 5 102 34q82 51 104 145.5t-29 176.5zM563 406q-3 -11 -5 -24l63 -52q75 -61 77 -63q19 -16 43.5 -25.5t54 -7.5t54.5 17q18 11 31 26.5t20 34.5q16 40 4 81.5t-47 70.5q-5 4 -79 65l-57 48q-30 -10 -55 -25q-82 -52 -104 -146z" />
    <glyph glyph-name="uniE670" unicode="&#xe670;" 
d="M804 140q0 -41 29 -70t70 -29t70 29t29 70t-29 70t-70 29t-70 -29t-29 -70zM598 138q-58 28 -151 39q-7 1 -12.5 -3.5t-6.5 -11.5t3.5 -12.5t11.5 -6.5q86 -10 137 -34t51 -46q0 -14 -21 -29t-58 -28t-94 -21.5t-122.5 -8.5t-123 8.5t-94.5 21.5t-57.5 28t-20.5 29
q0 23 49 45q55 26 146 36q7 1 11 6.5t3.5 12.5t-6 11.5t-12.5 3.5q-96 -11 -156 -39q-69 -32 -69 -76q0 -55 103 -89q94 -32 226 -32t226 32q103 34 103 89q0 44 -66 75zM762 611q-16 4 -57 40.5t-90.5 77.5t-83.5 53q-35 13 -90.5 20t-93.5 8l-38 1v-755h60v434
q61 29 73 41q11 11 53 13.5t82 -13.5t86.5 -11t70.5 23q4 4 11 9t9.5 7t7.5 5.5t6.5 4t5.5 2.5t5 1t5 0q8 -1 9 9q3 20 -26 28q-2 1 -5 2z" />
    <glyph glyph-name="uniE671" unicode="&#xe671;" 
d="M316 471q1 0 2 1v1q-100 14 -145 27q-9 2 -16.5 -2.5t-9.5 -13t2 -16t13 -9.5q35 -10 125 -21q14 17 29 33zM885 442q-1 9 -7.5 14.5t-15.5 4.5q-54 -5 -79 -6q17 -19 31 -41q44 2 51 5h1q8 1 14 7.5t5 15.5zM119 352.5q-2 -8.5 2 -16t13 -10.5q12 -3 95 -19q4 21 11 41
q-82 16 -95 19q-9 2 -16.5 -2t-9.5 -12.5zM1005 521q-15 24 -43 38l21 105q2 11 -2 23l-34 104q-4 12 -1 23l16 82h-67l-13 -69q-3 -12 -10 -21l-72 -84q-7 -9 -10 -21l-19 -99l-546 104q-15 3 -29 3q-48 0 -82 -29t-45 -78q-55 -237 -64 -325v-3v-2q3 -58 38.5 -100
t90.5 -53q63 -13 122 -17q-16 33 -25 68q-40 4 -84 13q-29 6 -51.5 28.5t-25.5 60.5q10 86 63 316q12 55 63 55q8 0 16 -1l688 -132q39 -8 50 -25t3 -53q-5 -21 -30 -56t-66 -69q6 -31 6 -62q0 -8 -1 -16q65 46 108 101q38 49 47 87q14 64 -12 104zM540 526
q-113 0 -192.5 -80t-79.5 -193t79.5 -193t192.5 -80t193 80t80 193t-80 193t-193 80zM679 98l14 31l-23 32l-39 -4l-16 -36l22 -32l36 3q-21 -17 -45 -28l-2 4l-40 -4l-7 -16q-19 -3 -39 -3q-18 0 -36 3l-7 16l-40 4l-3 -5q-25 12 -46 29l30 -3l23 32l-16 36l-40 4l-23 -32
l11 -23q-61 61 -61 147t61 147t147 61t147.5 -61t61.5 -147q0 -93 -70 -155zM364 274l-22 -33l17 -35l40 -3l22 32l-17 36zM525 221l-18 35l-39 3l-22 -33l17 -36l40 -2zM652 235l22 -32l40 3l17 35l-22 33l-40 -3zM566 256l-18 -35l23 -33l39 2l17 36l-22 33zM518 148
l-20 -35l20 -34h40l19 34l-19 35h-40zM660 -17q-4 3 -9 3q-4 0 -7 -3h-1q-41 -26 -102 -26t-103 26q-4 3 -8 3q-5 0 -9 -3l-2 -2q-12 -9 -12 -21q0 -19 29.5 -40t69.5 -29v-19h66v18q40 8 71 29t31 41q0 6 -2 10.5t-3.5 5.5t-8.5 7z" />
    <glyph glyph-name="uniE672" unicode="&#xe672;" 
d="M334 533q-90 0 -166 -44t-120.5 -120t-44.5 -166t44.5 -166t120.5 -120.5t166 -44.5t166 44.5t120 120.5t44 166q0 103 -44.5 179t-119 113.5t-166.5 37.5zM157.5 205q-19.5 0 -33 13.5t-13.5 33t13.5 33t33 13.5t33 -13.5t13.5 -33t-13.5 -33t-33 -13.5zM222 350.5
q0 19.5 14 33t33.5 13.5t33 -13.5t13.5 -33t-13.5 -33.5t-33 -14t-33.5 14t-14 33.5zM301.5 159q-19.5 0 -33 13.5t-13.5 33t13.5 33.5t33 14t33.5 -14t14 -33.5t-14 -33t-33.5 -13.5zM921 390q-15 35 -22 53.5t-13.5 45t-6.5 47.5v1q-2 41 14 100q17 56 17 95v10
q0 63 -41 106q-42 46 -105 46t-105 -46q-40 -43 -40 -106v-9v-1v-1q0 -38 16 -94q17 -59 15 -100v-1q-1 -32 -15 -75q25 -29 42 -62q26 64 32 106h111q6 -46 44 -139q20 -47 29.5 -74t18.5 -71.5t8 -84.5q-3 -56 -17 -104t-52 -98h-172q-16 21 -29 43q-18 -26 -41 -49
q14 -23 31 -44q9 -12 24 -12h201q15 0 24 11v1h1q50 63 69 123t22 126q2 46 -8 97t-20.5 80.5t-31.5 79.5zM817 550h-105q0 30 -7 60h118q-6 -30 -6 -60zM835 655h-141q-14 47 -14 77v10q0 39 24 64.5t60 25.5t60 -26t24 -64v-9q1 -30 -13 -78z" />
    <glyph glyph-name="uniE673" unicode="&#xe673;" 
d="M393 324q49 49 66.5 80t17.5 64q0 43 -27.5 68.5t-74.5 25.5q-55 0 -96 -32v-45q43 40 89 40q32 0 48.5 -16t16.5 -46q0 -26 -14 -50.5t-56 -66.5l-102 -101v-39h213v40h-160v1zM718 206v91h45v35h-45v224h-51l-155 -230v-29h163v-91h43zM558 332l104 155q10 19 13 27h1
q-1 -20 -1 -36v-146h-117zM941 554v184q0 8 -6.5 14.5t-15 6.5t-15 -6.5t-6.5 -14.5v-102q-77 113 -205 164q-83 32 -171.5 30.5t-170.5 -37.5q-83 -36 -144.5 -101.5t-92.5 -144t-30.5 -168.5t36.5 -173q36 -82 99.5 -143.5t146.5 -94.5q80 -31 164 -31q92 0 178 38
q122 53 195 163q4 8 2.5 16.5t-9 13t-16 3t-13.5 -8.5q-66 -100 -176 -148q-74 -33 -154 -34.5t-155 28.5t-132.5 85t-90.5 130t-33.5 156.5t27.5 152.5t84 130.5t131 91.5q74 33 154 34.5t155 -28.5q139 -54 208 -184h-75q-9 0 -15.5 -6.5t-6.5 -15t6.5 -15t15.5 -6.5h105
q7 -1 13 1q13 6 13 20z" />
    <glyph glyph-name="uniE674" unicode="&#xe674;" horiz-adv-x="1025" 
d="M340 341q20 -28 46.5 -46.5t52 -26t42 -10t30.5 -2.5h2q14 0 30.5 2.5t42 10t52 26t46.5 46.5q25 35 55 113q51 61 38 114q-6 27 -27 45q10 79 -10 135q-34 91 -119 127q-50 21 -103 21h-3h-3h-3h-3q-53 0 -103 -21q-85 -36 -119 -127q-20 -56 -10 -135q-21 -18 -27 -45
q-13 -53 38 -114q30 -78 55 -113zM321 568q21 8 36 -33q-19 58 -22 113q44 61 90 69q3 -4 10 -11t31 -24.5t52 -31t73.5 -24t94.5 -10.5q-6 -41 -19 -81q15 41 36 33q4 -1 7 -4.5t5 -10t0 -15.5t-9.5 -22.5t-22.5 -28.5q-28 -77 -51 -108.5t-56 -45t-63 -13.5h-1h-1
q-30 0 -63 13.5t-56 44.5q-10 15 -23 42t-21 47l-7 20q-15 15 -22.5 28.5t-9.5 22.5t0 15.5t5 10t7 4.5zM577 192l-30 32h-35h-35l-30 -32q17 -37 44 -51l-44 -112q33 -47 65 -59q14 6 30.5 20.5t25.5 26.5l9 12l-44 112q12 7 23 19.5t16 21.5zM975 106q-24 31 -98.5 60
t-133 43.5t-62.5 14.5q24 -136 -108 -250q-33 -28 -61 -44q-8 5 -21.5 13.5t-46.5 37.5t-56.5 61t-38.5 81.5t-6 100.5q-10 -2 -26.5 -5.5t-60.5 -16t-81 -25.5t-74 -32.5t-52 -38.5q-60 -77 -46 -176q3 -25 14.5 -38t45.5 -20h898q34 7 45.5 20t14.5 38q14 99 -46 176z" />
    <glyph glyph-name="uniE675" unicode="&#xe675;" 
d="M379 589h396v-21h-396v21zM379 657h396v-21h-396v21zM934 582v248h-428h-1h-235h-31v-30v-218h-96l1 -432h95v-105v-41h41h614h41v41v105h89v432h-90zM321 769h532v-251h-532v251zM853 86h-532v142h532v-142zM379 719h396v-21h-396v21zM115 257h-34q-8 0 -14 6
q-1 3 -2 8.5t-3 31.5t-2 62t1.5 61.5t3.5 33.5l2 7q6 6 14 6h34q4 0 8 2.5t4 5.5v92q0 4 -1.5 6t-4.5 2h-55q-9 0 -16 -5q-2 -2 -5.5 -6.5t-12 -21.5t-15 -39t-12 -60.5t-5.5 -83.5t5.5 -83.5t12.5 -60.5t14.5 -38t12.5 -23l5 -6q7 -5 16 -5h55q6 0 6 8v92q-3 8 -12 8z" />
    <glyph glyph-name="uniE676" unicode="&#xe676;" 
d="M21 399q0 -23 14 -36.5t36 -13.5h10q15 0 44 29t34 31v-108q6 2 23.5 13.5t23.5 13.5q8 4 28 10.5t28 10.5l-1 158l251 237q15 -10 133.5 -123.5t118.5 -116.5v-448h-121v-17q0 -19 -14 -81h185q31 0 40.5 18.5t9.5 55.5v126v253q8 -5 24 -22t32 -28.5t30 -11.5h3
q18 0 34 13.5t16 29.5v14q0 11 -22.5 35.5t-57 55.5t-35.5 33q-20 19 -61.5 57t-61.5 58q-21 21 -62 58.5t-61 56.5q-2 2 -11.5 12t-18.5 18l-20 22q-13 12 -24 21.5t-22 18.5t-19 14t-13 5q-15 0 -40.5 -21.5t-55 -52t-35.5 -35.5q-44 -37 -124 -117q-21 -21 -62.5 -59
t-61.5 -58q-10 -9 -30.5 -28.5t-31.5 -30.5q-3 -4 -15 -14t-18.5 -16.5t-12.5 -17.5t-6 -22zM455 323q-5 0 -32 16.5t-35 16.5q-14 0 -28.5 -25.5t-19.5 -45.5q-3 0 -9.5 2.5t-11.5 3.5t-12 1h-5q-22 0 -49 -12t-39.5 -20.5t-36.5 -26.5q-43 -33 -57 -37t-82 -4q-6 0 -10 -7
t-4 -15q0 -17 28.5 -58.5t37.5 -41.5h3q12 0 22.5 2t17 3.5t15.5 7t12 7.5t13.5 10t13.5 10q4 3 22 18.5t33.5 28t19.5 13.5l-122 -150q13 -19 75 -56t91 -43l101 116l-62 -131q51 -12 57 -12h3q5 0 30.5 37t32.5 41l-37 -83q99 0 118 33q35 60 35 115v26q0 14 -1.5 24
t-4.5 19t-5.5 14.5t-8.5 15.5l-9 15q12 6 32 29t20 36v4q0 11 -20 24.5t-32 16.5q3 13 33 40.5t58 55.5t28 44v5q0 16 -36 40t-50 24h-7q-15 0 -43.5 -36.5t-53 -73.5t-29.5 -37z" />
    </font>
</defs>
</svg>
